<?xml version="1.0" encoding="UTF-8"?>
<svg xmlns="http://www.w3.org/2000/svg" version="1.1" xmlns:xlink="http://www.w3.org/1999/xlink" viewBox="0 0 436.09 416.68">
  <defs>
    <style>
      .cls-1 {
        fill: #353f36;
      }

      .cls-1, .cls-2, .cls-3, .cls-4, .cls-5, .cls-6, .cls-7, .cls-8 {
        fill-rule: evenodd;
      }

      .cls-9, .cls-5 {
        fill: #eaceb9;
      }

      .cls-10 {
        opacity: .28;
      }

      .cls-10, .cls-11 {
        fill: #d3b098;
      }

      .cls-12 {
        fill: #755b41;
      }

      .cls-13 {
        fill: #edceb4;
      }

      .cls-14 {
        fill: #fff;
      }

      .cls-15 {
        opacity: .53;
      }

      .cls-16 {
        fill: none;
      }

      .cls-2, .cls-17 {
        fill: #839183;
      }

      .cls-18 {
        opacity: .93;
      }

      .cls-3 {
        fill: #29415e;
      }

      .cls-11 {
        opacity: .25;
      }

      .cls-19 {
        fill: #669166;
      }

      .cls-4 {
        fill: #465d7f;
      }

      .cls-20 {
        fill: #444;
      }

      .cls-21 {
        fill: #a34a48;
      }

      .cls-22 {
        fill: #6f87ad;
      }

      .cls-6 {
        fill: #728772;
      }

      .cls-23 {
        fill: #33353b;
        opacity: .52;
      }

      .cls-7 {
        fill: #547256;
      }

      .cls-8 {
        fill: #dab6e4;
      }

      .cls-24 {
        clip-path: url(#clippath);
      }
    </style>
    <clipPath id="clippath">
      <path class="cls-16" d="M165.93,192.73c4.35,30.5,7.94,50.65,29.82,50,21.88-.65,49.74-25.82,49.43-52.34-.31-26.52-18.3-47.5-40.19-46.86-21.88.65-39.37,22.68-39.06,49.2"/>
    </clipPath>
  </defs>
  <!-- Generator: Adobe Illustrator 28.7.1, SVG Export Plug-In . SVG Version: 1.2.0 Build 142)  -->
  <g>
    <g id="OBJECTS">
      <g class="cls-15">
        <circle class="cls-19" cx="222.54" cy="201.78" r="177.82" transform="translate(-77.5 216.46) rotate(-45)"/>
      </g>
      <path class="cls-8" d="M140.08,348.92s-11.18,1.4-21.35-.36c-3.12-.54-1.44,2.28-1.07,2.52,1.97,1.27,9.04,3.01,8.64,3.43-.85.89-14.23,2.18-18.94,2.09-.47,0-5.59-.29-5.57.42.02,1.66,2.72,2.07,3.98,2.24,4.26.58,17.32.39,16.68.48-1.17.17-11.09,2.04-14.92,2.59-.25.04-5.66.81-5.55,1.5.22,1.41,4.45,1.3,5.42,1.22,3.84-.33,14.28-1.1,15.6-1.18.55-.04-3.63,1.26-4.79,1.6-3.62,1.07-7.47,1.56-11.03,2.74-.7.23-3.16.81-2.85,2.01.21.78,2.23.82,2.78.82,3.43-.03,25.96-4.77,31.66-8.08,2.19-1.27,6.58-1.42,6.58-1.42,0,0,.69-10.48-5.26-12.63"/>
      <g>
        <path class="cls-7" d="M130.06,190.75c0-10.4-8.44-18.83-18.83-18.83h-47.29c-10.39,0-18.83,8.44-18.83,18.83v19.88c0,10.4,8.44,18.83,18.83,18.83h15.86l11.22,16.59s2.86,4.26,5.71,3.82c3.3-.51,2.77-6.09,2.77-6.09l.72-14.32h11c10.39,0,18.83-8.44,18.83-18.83v-19.88Z"/>
        <path class="cls-23" d="M101.08,190.9c.26.37.42.82.42,1.3v2.59l-.06.02c-.02.27,0,.58,0,.58l1.63-.5.43.9c-.16.2-.39.43-.69.7-.3.27-.62.54-.96.82-.11.09-.23.17-.34.26-.02.94-.07,1.35,0,1.7v11.38c0,.43-.13.83-.33,1.18-.17.11-.33.2-.53.3-.01.46-.45.78-1.21.85-.47.03-.92.02-1.41.02h-24.07c-.9,0-1.93-.34-2.7-.83l29.32,17.27,9.96.03c10.24-.28,18.63-7.02,19.17-15.19l.19-1.73s-28.81-21.66-28.82-21.64Z"/>
        <path class="cls-14" d="M76.19,194.78l3.38,3.48-2.77,1.31h-.04s-.35-3.7-.35-3.7l-.22-1.09ZM75.86,199.57l-.44-4.68-.51-2.53.05-.02,1.54,1.98,3.3,3.4s.02-.05.03-.07c.28-.55.95-.85,1.88-.85l2.73.02-9.51-8.98-1.9.9.68,10.83h2.15ZM80.05,199.13c-.1-.14-.17-.27-.22-.39l-1.77.84h2.32s-.33-.45-.33-.45ZM88.08,196.83s.04,0,.07,0c.14-.56.41-1.11.82-1.64.22-.28.48-.56.78-.84-.21-.13-.43-.28-.66-.47l-.04.02c-.08.04-.16.05-.24.05-.1,0-.2-.03-.28-.08-.25-.15-.52-.34-.8-.56-.26-.21-.53-.45-.8-.71-.26-.26-.52-.53-.76-.82-.24-.29-.45-.58-.63-.88-.11-.17-.11-.39,0-.57.08-.14.18-.27.27-.41h-2.1c-1.25,0-2.27,1.01-2.27,2.27v1l3.83,3.61,2.82.02ZM100.73,193.42c.18.37.33.69.47.95.07.14.15.29.24.44l.06-.02v-2.59c0-1.25-1.01-2.27-2.27-2.27h-.04c.14.32.27.63.4.93.34.84.73,1.7,1.14,2.56ZM99.99,200.09c-.21-.18-.38-.37-.54-.58l-.2.09c-.08.04-.16.05-.24.05-.13,0-.26-.05-.36-.14-.15-.13-.29-.28-.42-.42-.07.35-.17.69-.34,1.03-.2.4-.48.78-.83,1.13-.35.36-.8.66-1.33.91-.33.16-.67.27-1,.36l6.13,8.6c.18.25.27.48.31.68.2-.35.33-.75.33-1.18v-11.38c-.23.15-.44.3-.64.42l-.87.41ZM72.8,193.74c-.72.43-1.2,1.21-1.2,2.1v3.7h1.57s-.36-5.8-.36-5.8ZM94.21,191.4c-.22-.57-.45-1.06-.67-1.46h-2.59c-.1.09-.19.17-.28.27l.23,3.23c.09-.07.18-.13.27-.2.82-.56,1.85-1.18,3.05-1.83ZM103.5,195.79c-.16.2-.39.43-.69.7-.3.27-.62.54-.96.82-.34.28-.69.53-1.03.77-.35.24-.66.44-.93.62l-.87.41c-.36-.31-.65-.66-.87-1.04-.22-.38-.47-.84-.76-1.4l-.13.06c.08.38.09.78.03,1.2-.05.41-.18.82-.38,1.22-.2.4-.48.78-.83,1.13-.35.36-.8.66-1.33.91-.25.12-.51.22-.76.29l-2.09-2.94c-.59-.82-1.9-1.49-3.19-1.67.12-.45.35-.9.7-1.34.47-.61,1.17-1.23,2.08-1.85.91-.62,2.05-1.3,3.42-2.03-.56-1.54-1.13-2.59-1.71-3.15-.58-.56-1.3-.64-2.16-.23-.53.25-.98.57-1.34.95l.25,3.65-1.13.54h0c-.23-.14-.48-.31-.73-.52-.25-.2-.51-.43-.76-.68-.25-.25-.49-.51-.72-.78-.22-.27-.42-.54-.59-.82.44-.75,1.11-1.5,2.02-2.25.91-.74,1.93-1.39,3.08-1.93.98-.46,1.82-.73,2.54-.81.72-.08,1.34-.02,1.86.18.53.2.97.52,1.35.95.37.43.69.93.96,1.49.49,1.03.91,1.97,1.26,2.82.35.85.73,1.71,1.15,2.59.18.38.34.7.48.97.14.27.3.55.48.84l1.89-.58.43.9ZM96.76,196.13c-.01-.27-.03-.5-.06-.69l-1.22-2.57c-.8.4-1.43.76-1.9,1.09-.47.33-.81.66-1.01,1-.2.34-.28.68-.25,1.03.03.35.15.74.35,1.17.31.65.7,1.08,1.18,1.3.48.21.99.19,1.54-.07.36-.17.64-.39.83-.64.19-.26.33-.52.42-.8.09-.27.13-.54.12-.81ZM95.55,194.32c-.39.22-.73.42-1,.62-.47.33-.81.66-1.01,1-.2.34-.28.68-.25,1.03,0,.08.02.17.04.26.21.35.46.6.74.72.15.06.29.1.44.1.2,0,.41-.05.63-.16.27-.13.48-.29.62-.47.16-.21.27-.43.34-.64.07-.21.1-.42.09-.61,0-.21-.02-.4-.05-.56l-.6-1.27ZM93.22,201.38l-.83-1.16-.95-1.34c-.58-.82-2.09-1.48-3.37-1.49l-6.33-.04c-1.28,0-1.83.65-1.24,1.47l.97,1.34-17.01-.1c-1.38,0-1.96.71-1.29,1.61l7.26,9.78c.64.86,2.21,1.56,3.51,1.56h25.19c1.3,0,1.87-.69,1.26-1.54l-7.18-10.08Z"/>
      </g>
      <path class="cls-7" d="M178.78,66.08c0-10.4-4.5-18.83-14.9-18.83h-47.29c-10.39,0-14.78,8.44-14.78,18.83v19.88c0,10.4,4.39,18.83,14.78,18.83h15.86l11.22,16.59s2.86,4.26,5.71,3.82c3.3-.51,2.77-6.09,2.77-6.09l.72-14.32h11c10.39,0,14.9-8.44,14.9-18.83v-19.88Z"/>
      <g>
        <path class="cls-7" d="M245.61,98.76c0-10.4,4.5-18.83,14.9-18.83h47.29c10.39,0,14.78,8.44,14.78,18.83v19.88c0,10.4-4.39,18.83-14.78,18.83h-15.86l-11.22,16.59s-2.86,4.26-5.71,3.82c-3.3-.51-2.77-6.09-2.77-6.09l-.72-14.32h-11c-10.39,0-14.9-8.44-14.9-18.83v-19.88Z"/>
        <path class="cls-23" d="M297.23,87.85c.05.06.1.12.15.19l2.26,3.79.95,1.34c.12.12,1.63,1.09,1.71,1.23.8-.08,1.58.4,1.84,1.2l2.82,8.78s.09.62.27,1.56c.44.32.73.83.73,1.41v.14l1.13,3.51c.29.92-.21,1.9-1.13,2.19h0v10.33c0,.96-.78,1.74-1.74,1.74h-39.16c-.17,0-.33-.03-.48-.08-.05.04-.77-.56-.83-.52l26.19,12.8,18.97-.85c5.51,0,10.87-8.46,10.66-13.87l1.01-14.47s-25.33-20.44-25.36-20.43Z"/>
        <path class="cls-14" d="M309.89,110.62l-1.13-3.51v-.14c0-.96-.78-1.74-1.74-1.74h-38.89l5.14-.16,1.19-.38.11.34,1.31-.04-.22-.69,8.41-2.71,1,3.11,1.31-.04-1.11-3.45,8.41-2.71,1.89,5.88,1.31-.04-2-6.22,8.41-2.71,2.78,8.64,1.69-.05-2.82-8.78c-.18-.8-.8-1.33-1.49-1.32-.15,0-.52.09-.74.17-.71.24-34.58,11.16-34.58,11.16h0l4.06-1.31h0s-3.81,1.11-3.81,1.11l3.66-1.36v-.02s7.48-4.69,7.48-4.69l.98,1.57,1.2-.45-1.12-1.79,7.49-4.69,2.09,3.34,1.2-.45-2.23-3.57,7.49-4.69,3.21,5.12,1.55-.58-.85-1.35-2.37-3.78c-.51-.82-1.59-1.06-2.4-.55l-24.57,15.39.13-.13-4.76,2.86,5.85-3.99,3.34-3.45.71.69,1.06-.72-.89-.86,6.16-6.34,2.19,2.13,1.06-.72-2.37-2.31,6.16-6.34,3.67,3.57,1.37-.93h0s-3.68-3.57-3.68-3.57c-.69-.67-1.79-.65-2.47.04l-22.58,23.27-.65.41,1.19-.38h0l-1.21.39c-.29.09-.53.26-.72.46l-2.16,1.35c-.73.46-1,1.37-.68,2.14l-.45.46c-.67.69-.65,1.79.04,2.47l4.62,4.49v5.69c0,.96.78,1.74,1.74,1.74h39.16c.96,0,1.74-.78,1.74-1.74v-10.33h0c.92-.3,1.42-1.28,1.13-2.19ZM264.35,108.28l1.4,4.35-2.26-3.61.92-.57-.05-.17ZM266.12,116.81l-3.2-5.11-.33-.32.08-.08-.63-1,4.08,6.51h0ZM270.32,117.36c-1.27,0-2.3-1.03-2.3-2.3s1.03-2.3,2.3-2.3,2.3,1.03,2.3,2.3-1.03,2.3-2.3,2.3Z"/>
      </g>
      <g>
        <path class="cls-4" d="M207.92,245.63s-12.78,3.94-14.52,20.79c-5.08,49.09-3.24,72.43-8.75,82.17-1.16,2.05-53.66-5.43-54.22-3.98-1.56,4.08-11.74,20.92-9.83,21.47,5.98,1.72,76,21,90.96,6.85,13.77-13.03,11.87-39.01,8.75-52.66-3.97-17.35,7.51-73.61-12.38-74.64Z"/>
        <path class="cls-22" d="M305.79,375.64c-13.32-44.24-52.74-140.27-52.74-140.27l-21.51-2.86c-2.7-2.08-29.78,19.13-29.78,19.13,0,0-2.29,12.88-4.48,25.71-2,11.74-13.42,23.92-12.34,30.17,2.5,14.48,20.32,17.97,20.32,17.97,3.16,25.49,5.61,40.72,9.05,53.78"/>
        <path class="cls-4" d="M250.57,235.59s-6.63,14.7-3.36,36.08c1.39,9.11,12.09,46.06,14.62,54.96,5.48,19.26-3.57,19.65-22.71,19.78-2.71.02-22.52-2.05-22.92-.37-1.12,4.71-5.13,26.96,2.22,28.59,8.99,1.99,55.89,7.77,69.45-9.73,12.49-16.11,7.63-44.67,2.92-59.42-5.98-18.75-19.96-71.16-40.24-69.9"/>
        <path class="cls-3" d="M216.57,345.26c2.72-.03,5.35,6.5,5.87,14.59.52,8.1-1.26,14.69-3.98,14.72-2.72.04-5.35-6.5-5.87-14.59-.52-8.1,1.26-14.69,3.98-14.72"/>
        <path class="cls-5" d="M221.55,357.68s-10.83-2.54-19.45-7.66c-2.64-1.57-2.26,1.62-2.01,1.98,1.29,1.86,7.07,5.89,6.52,6.15-1.14.53-13.96-2.86-18.24-4.56-.43-.17-5.01-2.19-5.29-1.52-.66,1.55,1.65,2.86,2.73,3.45,3.67,2,15.74,6.31,15.11,6.17-1.14-.25-11.02-1.91-14.76-2.72-.24-.05-5.53-1.19-5.71-.51-.37,1.38,3.55,2.74,4.48,2.99,3.66,1.01,13.55,3.88,14.81,4.26.52.16-3.84-.08-5.06-.16-3.76-.25-7.49-1.12-11.25-1.25-.74-.02-3.24-.33-3.44.89-.13.79,1.71,1.53,2.22,1.71,3.16,1.15,25.78,4.49,32.37,3.37,2.54-.43,6.62.94,6.62.94,0,0,4.93-9.49.35-13.52"/>
        <path class="cls-12" d="M206.19,254.98s19.23-21.56,4.05-12.23c-.69.42-1.41,9.85-.92,9.77l43.35-13.92s23.2,27.95,24.55,7.04c2.64-41.24-6.89-49.34-15.17-64.83-7.34-13.73-9.29-28.12-19.25-35.5-14.4-10.67-34.41-24.99-50.83-5.47,0,0-13.83-1.71-22.87,8.2s.26,17.63-14.62,28.63c-10.4,7.69-6.87,23.69-4.49,34.25,8.5,37.71,38.06,46.63,42.46,46.32,3.53-.29,47.89-2.91,18.33-7.32"/>
        <path class="cls-13" d="M231.33,233.49l-1.49-40.04c-4.02-8.55-27.56-9.01-35.43-4.81-7.28,3.89-11.04,13.11-8.86,21.75l19.44,49.78c2.83,10.11,15.24,7.32,19.96.92,12.16-16.49,7.03-26.54,6.37-27.6Z"/>
        <g class="cls-18">
          <path class="cls-13" d="M178.05,221.12l-3.66-16.03s-7.1-3.29-9.2,4.44c-2.09,7.73,6.11,13.87,12.86,11.59"/>
        </g>
        <path class="cls-9" d="M165.93,192.73c4.35,30.5,7.94,50.65,29.82,50,21.88-.65,49.74-25.82,49.43-52.34-.31-26.52-18.3-47.5-40.19-46.86-21.88.65-39.37,22.68-39.06,49.2"/>
        <path class="cls-4" d="M214.96,311.86s16.34,13.52,37.71,6.92c0,0-22.25,18.72-37.71-6.92Z"/>
        <ellipse class="cls-10" cx="213.07" cy="205.47" rx="8.93" ry="10.82" transform="translate(-82.88 210.84) rotate(-45)"/>
        <g class="cls-24">
          <ellipse class="cls-11" cx="171.45" cy="223" rx="8.93" ry="10.82" transform="translate(-107.4 259.98) rotate(-60)"/>
        </g>
        <path class="cls-12" d="M171.45,167.51s5.12-9.14,13.48,0c8.36,9.14,4.48,23.73,24.39,26.19,19.91,2.47,7.44,21.48,21.3,20.7l1.51,32.55s36.4-50.91,17.51-80.51c-18.89-29.59-64.98-38.69-78.18,1.06Z"/>
        <path class="cls-13" d="M225.2,215.52l6.78-16.4s9.2-3.49,10.68,4.33c1.47,7.83-9.49,14.25-17.46,12.06"/>
      </g>
      <g>
        <rect class="cls-17" x="116.75" y="366.11" width="102.18" height="9.99"/>
        <path class="cls-2" d="M164.7,374.13l-11.87-110.71-121.76,8.48,18.9,102.23h114.73Z"/>
        <path class="cls-7" d="M157.01,375.82l-11.3-112.29-121.25,8.69,18.34,103.68,114.21-.09Z"/>
        <path class="cls-2" d="M87.55,308.28c5.9-2.55,12.79,1.53,15.41,9.11,2.61,7.58-.05,15.79-5.95,18.33-5.9,2.55-12.79-1.53-15.41-9.11-2.61-7.58.05-15.79,5.95-18.33Z"/>
      </g>
      <g>
        <path class="cls-6" d="M345.04,256.89s-23.41-14.83-5.69-27.81c17.71-12.98-13.13-27.24-2.2-41.36,10.93-14.11,20.78-5.9,23.68-15.69,2.89-9.79-9-18.92.95-32.54,9.95-13.62,20.3-18.82,32-15.57,11.7,3.25-7.27,30.94,4.27,38.25,11.54,7.3,7.68,25.97-12.92,40.2-20.59,14.22,8.14,28.17-10.76,37.43-18.9,9.26-29.34,17.09-29.34,17.09Z"/>
        <path class="cls-6" d="M318.09,299.44s19.74-13.61,7.11-22.34c-12.62-8.73,12.88-22.51,5.67-32.7-7.2-10.19-15.7-2.91-17.03-10.36-1.33-7.46,3-17.17-.85-28.35-5.02-14.58-17.78-16.32-26.85-7.82-7.37,6.91,9.24,24.81-.49,31.51-9.73,6.7-8.49,21.06,6.27,30.53,14.76,9.47-9.06,22.83,4.84,28.54,13.9,5.71,21.32,10.99,21.32,10.99Z"/>
        <path class="cls-7" d="M381.65,152.86l.3.14.27.2.22.25.16.29.1.32.03.33-.04.33-.11.31-.26.55-.25.55-.25.55-.25.55-.25.55-.25.55-.24.55-.24.56-.24.56-.24.56-.24.56-.24.56-.24.56-.24.56-.23.56-.23.56-.23.56-.23.56-.23.56-.23.56-.23.56-.23.57-.22.57-.22.57-.22.57-.22.57-.22.57-.22.57-.22.57-.21.57-.21.57-.21.57-.21.57-.21.57-.21.57-.21.58-.21.58-.21.58-.21.58-.21.58-.21.58-.2.58-.2.58-.2.58-.2.58-.2.58-.2.58-.2.58-.2.58-.2.58-.39,1.17-.39,1.17-.39,1.17-.38,1.17-.38,1.17-.38,1.17-.38,1.17-.38,1.17-.37,1.18-.37,1.18-.37,1.18-.37,1.18-.37,1.18-.37,1.18-.37,1.18-.73,2.36-.73,2.36-.73,2.36-.73,2.36-.73,2.35-.36,1.18-.37,1.17-.37,1.17-.37,1.17-.37,1.17-.37,1.17-.37,1.17-.37,1.17-.37,1.17-.38,1.17-.38,1.16-.38,1.16-.38,1.16-.39,1.16-1.07,3.2-1.07,3.2-1.07,3.2-1.08,3.19-1.08,3.19-1.08,3.2-2.16,6.39-2.17,6.39-1.08,3.2-1.08,3.2-1.08,3.2-1.08,3.2-1.08,3.2-1.07,3.2-1.07,3.2-1.07,3.2-.53,1.6-.53,1.6-.53,1.6-.53,1.6-.53,1.6-.53,1.6-.53,1.6-.53,1.6-.53,1.6-.52,1.6-.52,1.6-.52,1.6-.52,1.6-.52,1.6-.52,1.6-.52,1.6-.51,1.6-.51,1.6-.51,1.6-.51,1.6-.51,1.6-.5,1.6-.5,1.61-.5,1.61-.5,1.61-.5,1.61-.5,1.61-.49,1.61-.13.31-.19.27-.24.23-.29.17-.32.11-.33.04-.33-.03-.32-.1-.29-.16-.25-.22-.2-.27-.14-.3-.07-.32v-.33s.06-.33.06-.33l.49-1.61.5-1.61.5-1.61.5-1.61.5-1.61.51-1.61.51-1.61.51-1.61.51-1.61.51-1.61.51-1.61.51-1.61.52-1.61.52-1.61.52-1.6.52-1.61.52-1.6.52-1.6.53-1.6.53-1.6.53-1.6.53-1.6.53-1.6.53-1.6.53-1.6.53-1.6.53-1.6.53-1.6,1.07-3.2,1.07-3.2,1.07-3.2,1.08-3.2,1.08-3.2,1.08-3.2,1.08-3.2,1.08-3.2,2.17-6.39,2.16-6.39,1.08-3.19,1.08-3.19,1.08-3.19,1.07-3.19,1.07-3.19,1.07-3.19.38-1.15.38-1.15.38-1.16.38-1.16.37-1.16.37-1.16.37-1.16.37-1.17.37-1.17.37-1.17.37-1.17.36-1.17.37-1.17.36-1.17.73-2.35.73-2.36.73-2.36.73-2.36.73-2.36.37-1.18.37-1.18.37-1.18.37-1.18.37-1.18.37-1.18.37-1.18.38-1.18.38-1.18.38-1.18.38-1.18.39-1.18.39-1.18.39-1.17.39-1.17.2-.59.2-.59.2-.59.2-.58.2-.59.2-.58.2-.59.2-.58.21-.58.21-.58.21-.58.21-.58.21-.58.21-.58.21-.58.21-.58.21-.58.21-.58.22-.58.22-.58.22-.58.22-.58.22-.58.22-.58.22-.58.22-.58.23-.57.23-.57.23-.57.23-.57.23-.57.23-.57.23-.57.23-.57.24-.57.24-.57.24-.57.24-.57.24-.57.24-.57.24-.56.25-.56.25-.56.25-.56.25-.56.25-.56.25-.56.26-.56.26-.56.26-.55.17-.29.23-.24.27-.19.31-.13.33-.06h.33s.33.08.33.08Z"/>
        <path class="cls-7" d="M299.88,208.32l.26.09.24.14.21.18.18.21.14.24.1.26.11.41.11.41.23.83.22.83.22.83.22.83.21.83.21.84.21.84.21.84.21.84.2.84.2.84.2.84.2.85.19.85.19.85.19.85.19.85.19.85.18.85.18.85.18.86.18.86.18.86.18.86.18.86.17.86.17.86.17.86.17.86.17.86.17.86.17.86.17.86.33,1.73.33,1.73.33,1.73.33,1.73.33,1.73.65,3.45.32,1.72.33,1.72.33,1.71.33,1.71.16.85.17.85.17.85.17.85.17.85.17.85.17.84.17.84.48,2.34.48,2.34.48,2.34.48,2.34.96,4.68.97,4.68.97,4.68.97,4.68.96,4.69.48,2.34.48,2.34.48,2.34.48,2.35.48,2.34.47,2.35.47,2.35.47,2.35.47,2.35.47,2.35.46,2.35.46,2.35.46,2.35.46,2.35.45,2.35.23,1.18.23,1.18.22,1.18.22,1.18.22,1.18.22,1.18.03.28-.02.28-.07.27-.11.25-.16.23-.19.2-.23.16-.25.12-.27.08-.28.03-.28-.02-.27-.07-.25-.12-.23-.16-.2-.19-.16-.23-.12-.25-.08-.27-.22-1.18-.22-1.18-.22-1.17-.22-1.18-.22-1.18-.23-1.17-.45-2.35-.46-2.35-.46-2.35-.46-2.35-.46-2.35-.47-2.35-.47-2.35-.47-2.34-.47-2.34-.47-2.34-.48-2.34-.48-2.34-.48-2.34-.48-2.34-.48-2.34-.96-4.68-.97-4.68-.97-4.68-.97-4.68-.96-4.68-.48-2.34-.48-2.34-.48-2.34-.48-2.34-.17-.85-.17-.85-.17-.85-.17-.85-.17-.85-.17-.85-.17-.86-.17-.86-.33-1.71-.33-1.72-.33-1.72-.33-1.72-.65-3.45-.32-1.72-.33-1.72-.33-1.72-.33-1.72-.33-1.72-.17-.86-.17-.86-.17-.86-.17-.86-.17-.86-.17-.86-.17-.86-.17-.86-.18-.85-.18-.85-.18-.85-.18-.85-.18-.85-.18-.85-.18-.85-.19-.85-.19-.84-.19-.84-.19-.84-.19-.84-.19-.84-.2-.84-.2-.83-.2-.83-.2-.83-.21-.83-.21-.83-.21-.82-.21-.82-.21-.82-.22-.82-.22-.82-.22-.81-.11-.41-.11-.41-.05-.27v-.28s.04-.27.04-.27l.09-.26.14-.24.18-.22.21-.18.24-.14.26-.1.27-.05h.28s.27.04.27.04Z"/>
        <path class="cls-1" d="M354.12,314.11h-63.08v34.89c0,11.08,14.39,26.46,14.39,26.46l33.18.7s15.51-15.61,15.51-27.16v-34.89Z"/>
      </g>
      <path class="cls-20" d="M201.28,190.65c-5.6-1.55-11.83-.14-15.63,4.37,0,0-.06-.04-.06-.04,2.69-5.59,10.64-6.37,15.7-4.33h0Z"/>
      <path class="cls-20" d="M199.14,198.58c.58,1.75-.37,3.64-2.12,4.21-1.75.58-3.64-.37-4.21-2.12-.58-1.75.37-3.64,2.12-4.21,1.75-.58,3.64.37,4.21,2.12Z"/>
      <path class="cls-20" d="M167.55,201.75c2.88-3.74,8.37-6.91,13.04-4.57,0,0-.02.07-.02.07-2.39-.37-4.75-.17-7.04.54-2.28.71-4.29,2.45-5.98,3.95h0Z"/>
      <path class="cls-20" d="M172.97,207.59c.58,1.75,2.46,2.7,4.21,2.12,1.75-.58,2.7-2.46,2.12-4.21-.58-1.75-2.46-2.7-4.21-2.12-1.75.58-2.7,2.46-2.12,4.21Z"/>
      <path class="cls-20" d="M184.05,200.35c2.62,5.52,2.78,12.15.86,17.92,0,0-.24-.63-.24-.63,1.66,1.15,3.68,1.83,5.83,1.95-2.11.5-4.46.12-6.43-1l-.34-.2.1-.43c1.38-5.81,1.3-11.72.22-17.62h0Z"/>
      <path class="cls-21" d="M184.3,225.96c4.5,1.42,8.48,2.03,11.3-2.34.86-1.2,1.58-2.66,2.54-4.12,1.51,9.03-8.15,14.36-13.84,6.46h0Z"/>
      <path class="cls-21" d="M189.03,228.1c.74.22,1.54.23,2.28.04.24-.06.47-.24.59-.46s.18-.53.1-.76-.23-.47-.46-.59-.5-.17-.76-.1c-.13.03-.25.06-.38.07l.26-.04c-.29.04-.58.04-.87,0l.26.04c-.17-.02-.34-.06-.51-.11-.24-.07-.55-.03-.76.1-.21.12-.4.36-.46.59-.06.25-.05.54.1.76s.34.38.59.46h0Z"/>
      <path class="cls-21" d="M188.74,228.38c1.1-.21,2.09-.71,2.96-1.4.34-.27.66-.57,1.1-.67.17-.04.34-.04.52-.06.23-.02.4-.08.61-.17-.39.18-.2.07-.13.06.52-.1,1.04-.25,1.56-.37s1.1-.19,1.55-.46c1.1-.65.1-2.36-1-1.71-.08.05.27-.08.13-.05-.04,0-.07.03-.11.04-.11.03-.21.06-.32.09-.29.07-.58.14-.87.21-.5.11-1.02.2-1.51.36-.06.02-.12.04-.17.07-.36.16.36,0,.01-.02-.3-.01-.65.06-.93.15-.57.17-1.03.48-1.48.85-.74.6-1.5,1.01-2.44,1.19-.53.1-.83.73-.69,1.22.15.55.69.8,1.22.69h0Z"/>
      <path class="cls-21" d="M187.72,228.66c.77-.1,1.51-.21,2.22-.55.27-.13.52-.31.79-.44.23-.11.53-.2.8-.28.65-.2,1.29-.4,1.94-.61s1.46-.33,1.96-.84c.9-.91-.5-2.31-1.4-1.4.09-.05.08-.05-.02,0,.09-.04.08-.04-.03,0-.13.03-.26.08-.39.12-.3.09-.6.19-.91.28-.6.19-1.2.37-1.8.56s-1.17.45-1.72.76c-.44.24-.98.34-1.45.41-.53.07-.99.41-.99.99,0,.48.46,1.06.99.99h0Z"/>
      <path class="cls-21" d="M194.43,226.03c.14-.14.28-.28.44-.4l-.2.16c.12-.09.24-.16.37-.22l-.24.1c.4-.15.84-.21,1.2-.47.2-.14.38-.29.53-.47s.29-.39.44-.58l-.16.2s.09-.09.14-.13l-.2.16c.13-.1.27-.18.4-.27.26-.18.43-.34.62-.59.15-.19.16-.55.1-.76-.06-.23-.24-.48-.46-.59-.23-.12-.51-.18-.76-.1s-.43.24-.59.46l-.02.03.16-.2s-.09.09-.14.13l.2-.16c-.16.13-.34.23-.51.35-.22.16-.33.27-.5.49-.07.09-.13.19-.2.28l.16-.2c-.12.15-.24.29-.39.4l.2-.16c-.08.06-.17.11-.27.15l.24-.1c-.36.14-.73.2-1.08.38s-.62.45-.89.72c-.37.37-.39,1.04,0,1.4s1.01.39,1.4,0h0Z"/>
      <path class="cls-21" d="M193.2,228.06c.84-.13,1.6-.61,2.16-1.24.47-.53,1.17-.87,1.47-1.55.11-.25.18-.49.1-.76-.06-.23-.24-.48-.46-.59-.23-.12-.51-.18-.76-.1-.23.07-.49.23-.59.46-.04.09-.09.18-.15.26l.16-.2c-.21.27-.5.47-.76.69-.3.25-.53.58-.84.83l.2-.16c-.19.15-.4.27-.63.37l.24-.1c-.21.09-.43.15-.65.19s-.48.26-.59.46c-.12.21-.18.53-.1.76s.23.47.46.59c.25.13.49.14.76.1h0Z"/>
      <path class="cls-23" d="M156.87,61.71s.03.06,0,.1v2.32h-.82v.58h.02v10.18h0v.58h.81v2.43h-.82v.58h.02v10.17h-.02v.58h.82v2.43h-2.43v-.75h-.58s-10.87,0-10.87,0v-.02h-.58v.76h-2.43v-.76h-.58v.02h-10.91s-.58,0-.58,0v.75h-2.41c.55.57,27.36,13.16,27.36,13.16l13.95-.26c5.75-.26,10.37-5.29,11.8-15.32l.16-12.09-21.92-15.42Z"/>
      <path class="cls-14" d="M154.18,75.37l-5.55,5.38,1.33,7.61c.19,1.09-.95,1.92-1.93,1.4l-6.83-3.62-6.83,3.62c-.98.52-2.12-.31-1.93-1.4l1.33-7.61-5.55-5.38c-.79-.77-.36-2.11.74-2.27l7.65-1.09,3.4-6.94c.49-.99,1.9-.99,2.38,0l3.4,6.94,7.65,1.09c1.09.16,1.53,1.5.74,2.27ZM153.86,62.46h-10.87v.87h10.87v-.87ZM126.34,78.47v10.17h.88v-10.17h-.88ZM155.19,64.71v10.18h.88v-10.18h-.88ZM139.41,62.46h-10.91v.87h10.91v-.87ZM155.19,78.47v10.17h.88v-10.17h-.88ZM142.99,90.9h10.87v-.87h-10.87v.87ZM128.51,90.9h10.91v-.87h-10.91v.87ZM127.22,74.89v-10.18h-.88v10.18h.88ZM142.41,61.71h-2.43v2.43h2.43v-2.43ZM154.44,77.89h2.43v-2.43h-2.43v2.43ZM154.44,61.71v2.43h2.43v-2.43h-2.43ZM127.93,61.71h-2.43v2.43h2.43v-2.43ZM154.44,91.65h2.43v-2.43h-2.43v2.43ZM139.99,91.65h2.43v-2.43h-2.43v2.43ZM125.5,91.65h2.43v-2.43h-2.43v2.43ZM125.5,77.89h2.43v-2.43h-2.43v2.43Z"/>
    </g>
  </g>
</svg>