<?xml version="1.0" encoding="UTF-8"?>
<svg xmlns="http://www.w3.org/2000/svg" version="1.1" xmlns:xlink="http://www.w3.org/1999/xlink" viewBox="0 0 369.19 324.77">
  <defs>
    <style>
      .cls-1, .cls-2 {
        fill: #eaceb9;
      }

      .cls-3 {
        fill: #755b41;
      }

      .cls-4 {
        fill: #edceb4;
      }

      .cls-5 {
        fill: #5a5b5a;
      }

      .cls-5, .cls-6, .cls-7, .cls-8, .cls-9, .cls-2, .cls-10, .cls-11, .cls-12 {
        fill-rule: evenodd;
      }

      .cls-6 {
        fill: #fff;
      }

      .cls-13 {
        fill: none;
      }

      .cls-14 {
        fill: #e0e0e0;
        opacity: .69;
      }

      .cls-7, .cls-15 {
        fill: #839183;
      }

      .cls-8 {
        fill: #29415e;
      }

      .cls-9 {
        fill: #465d7f;
      }

      .cls-16 {
        fill: #444;
      }

      .cls-17 {
        fill: #d3b098;
      }

      .cls-18 {
        fill: #a34a48;
      }

      .cls-19 {
        fill: #6f87ad;
      }

      .cls-10 {
        fill: #728772;
      }

      .cls-11 {
        fill: #547256;
      }

      .cls-12 {
        fill: #dab6e4;
      }

      .cls-20 {
        clip-path: url(#clippath);
      }
    </style>
    <clipPath id="clippath">
      <path class="cls-13" d="M221.92,138.35c.32-25.62-16.57-46.91-37.71-47.55-21.14-.63-38.53,19.62-38.85,45.24-.32,25.63,26.58,49.96,47.72,50.6s24.61-18.82,28.84-48.28h0Z"/>
    </clipPath>
  </defs>
  <!-- Generator: Adobe Illustrator 28.7.1, SVG Export Plug-In . SVG Version: 1.2.0 Build 142)  -->
  <g>
    <g id="Layer_1">
      <g id="OBJECTS">
        <rect class="cls-14" x="51.38" y="5.62" width="304.39" height="312.49"/>
        <path class="cls-12" d="M246.82,289.28c-5.74,2.07-5.09,12.2-5.09,12.2,0,0,4.24.15,6.36,1.38,5.51,3.2,27.27,7.8,30.58,7.83.54,0,2.49-.04,2.69-.79.31-1.15-2.07-1.72-2.75-1.94-3.45-1.14-7.16-1.62-10.66-2.66-1.13-.34-5.16-1.59-4.63-1.55,1.28.08,11.36.83,15.07,1.15.94.08,5.02.18,5.24-1.18.11-.67-5.12-1.41-5.36-1.45-3.7-.54-13.29-2.36-14.42-2.52-.63-.09,12,.1,16.11-.46,1.21-.17,3.82-.56,3.84-2.17.01-.69-4.93-.41-5.39-.41-4.55.09-17.48-1.17-18.3-2.03-.39-.41,6.43-2.08,8.34-3.3.36-.24,1.99-2.96-1.03-2.44-9.83,1.69-20.63.34-20.63.34"/>
        <g>
          <path class="cls-11" d="M256.58,136.48v19.21c-.02,10.05,8.14,18.21,18.18,18.21h10.63s.69,13.84.69,13.84c0,0-.5,5.39,2.68,5.88,2.76.42,5.52-3.69,5.52-3.69l10.85-16.02h15.32c10.05.02,18.21-8.14,18.21-18.18v-19.21c.02-10.05-8.14-18.21-18.18-18.21l-45.69-.03c-10.05,0-18.21,8.15-18.21,18.19h0Z"/>
          <path class="cls-6" d="M275.59,140.24h.06s.06.02.06.02l.06.02.06.02.06.02.05.03.05.03.05.03.05.03.05.04.04.05.04.05.03.05.03.05.03.05.02.06.02.06.02.06v.06s.02.06.02.06v.06s.08,1.32.08,1.32l.07,1.32.04.66.04.66.03.67.03.67.03.67.03.67.03.67.02.67.02.67.02.67v.33s.02.33.02.33v.33s.02.33.02.33v.12s-.01.06-.01.06v.06s-.03.06-.03.06l-.02.06-.02.06-.03.05-.03.05-.03.05-.04.05-.04.05-.05.04-.05.04-.05.03-.05.03-.05.03-.06.02-.06.02-.06.02h-.06s-.06.01-.06.01h-.06s-.12.01-.12.01h-.06s-.06-.02-.06-.02l-.06-.02-.06-.02-.06-.02-.05-.03-.05-.03-.05-.03-.05-.04-.05-.04-.04-.05-.04-.05-.03-.05-.03-.05-.03-.05-.02-.06-.02-.06-.02-.06v-.06s-.01-.06-.01-.06v-.06s-.02-.33-.02-.33v-.33s-.02-.33-.02-.33v-.33s-.04-.66-.04-.66l-.02-.66-.03-.66-.03-.66-.03-.66-.03-.66-.03-.66-.03-.66-.04-.66-.04-.66-.07-1.32-.07-1.32v-.06s0-.06,0-.06v-.06s.02-.06.02-.06l.02-.06.02-.06.02-.06.03-.05.03-.05.03-.05.04-.05.04-.05.05-.04.05-.04.05-.03.05-.03.05-.03.06-.02.06-.02.06-.02h.06s.06-.02.06-.02h.06s.06,0,.06,0h.06s.01,0,.01,0Z"/>
          <path class="cls-6" d="M282.25,139.69h.06s.06.02.06.02l.06.02.06.02.06.02.06.03.05.03.05.03.05.04.05.04.04.05.04.05.03.05.03.05.03.06.02.06.02.06.02.06v.06s.01.06.01.06v.06s.01.06.01.06v.17s-.01.17-.01.17v.17s-.01.17-.01.17v.17s-.01.17-.01.17v.17s0,.17,0,.17v.17s0,.17,0,.17v.17s0,.17,0,.17v.17s0,.17,0,.17v.17s0,.17,0,.17v.17s0,.17,0,.17l.02.34v.34s.02.34.02.34v.34s.03.34.03.34l.04.69.04.69.02.35.02.35v.35s.02.35.02.35v.35s.01.17.01.17v.17s.01.17.01.17v.17s0,.17,0,.17v.17s0,.17,0,.17v.17s0,.35,0,.35v.18s0,.18,0,.18v.18s0,.18,0,.18v.18s0,.18,0,.18v.18s-.01.17-.01.17v.06s-.02.06-.02.06v.06s-.03.06-.03.06l-.02.06-.03.06-.03.05-.03.05-.03.05-.04.05-.05.05-.05.04-.05.04-.05.03-.05.03-.06.03-.06.02-.06.02h-.06s-.06.02-.06.02h-.06s-.06,0-.06,0h-.06s-.06-.01-.06-.01h-.06s-.06-.03-.06-.03l-.06-.02-.06-.02-.06-.03-.05-.03-.05-.03-.05-.04-.05-.04-.04-.05-.04-.05-.03-.05-.03-.05-.03-.06-.02-.06-.02-.06-.02-.06v-.06s-.01-.06-.01-.06v-.06s-.01-.06-.01-.06v-.17s0-.17,0-.17v-.17s.01-.17.01-.17v-.17s0-.17,0-.17v-.17s0-.17,0-.17v-.17s0-.34,0-.34v-.17s0-.17,0-.17v-.17s0-.17,0-.17v-.17s0-.17,0-.17v-.17s-.02-.34-.02-.34v-.34s-.02-.34-.02-.34l-.02-.34-.02-.35-.04-.69-.04-.69-.02-.35-.02-.35v-.35s-.02-.35-.02-.35v-.35s-.01-.17-.01-.17v-.17s-.01-.17-.01-.17v-.17s0-.17,0-.17v-.17s0-.17,0-.17v-.18s0-.17,0-.17v-.18s0-.18,0-.18v-.18s0-.18,0-.18v-.18s0-.18,0-.18v-.18s.01-.18.01-.18l.02-.17v-.06s.02-.06.02-.06v-.06s.03-.06.03-.06l.02-.06.03-.06.03-.06.03-.05.03-.05.04-.05.05-.05.05-.04.05-.04.05-.03.05-.03.06-.03.06-.02.06-.02h.06s.06-.02.06-.02h.06s.06,0,.06,0h.06s.02.02.02.02Z"/>
          <path class="cls-6" d="M282.1,145.35h.05s.05.01.05.01h.05s.05.02.05.02h.05s.05.03.05.03l.05.02.04.02.04.02.04.02.04.03.04.03.03.03.03.03.03.03.03.03.03.04.03.04.02.04.02.04.02.04.02.05.02.05v.05s.02.05.02.05v.05s.01.05.01.05v.05s0,.05,0,.05v.05s0,.05,0,.05v.05s-.02.05-.02.05v.05s-.02.05-.02.05l-.02.05-.02.05-.02.04-.02.04-.03.04-.03.04-.03.03-.03.03-.03.03-.03.03-.03.03-.04.03-.04.02-.04.02-.04.02-.05.02-.05.02h-.05s-.05.02-.05.02h-.05s-.05.01-.05.01h-.05s-.2.02-.2.02h-.2s-.2.02-.2.02h-.2s-.4.03-.4.03l-.4.02-.4.02-.4.02h-.2s-.2.02-.2.02h-.2s-.2.02-.2.02h-.2s-.2.02-.2.02l-.2.02-.2.02-.2.02-.2.02h-.1s-.1.02-.1.02h-.1s-.1.02-.1.02h-.1s-.09.02-.09.02h-.09s-.09.02-.09.02l-.09.02-.09.02-.09.02-.09.02-.09.02-.09.02-.09.02-.09.02-.09.02-.09.02-.09.02-.09.02h-.05s-.05.01-.05.01h-.05s-.05.01-.05.01h-.05s-.05,0-.05,0h-.05s-.05,0-.05,0l-.05-.02h-.05s-.05-.03-.05-.03l-.05-.02-.05-.02-.04-.02-.04-.02-.04-.03-.04-.03-.03-.03-.03-.03-.03-.03-.03-.03-.03-.03-.03-.04-.02-.04-.02-.04-.02-.04-.02-.05-.02-.05v-.05s-.02-.05-.02-.05v-.05s-.01-.05-.01-.05v-.05s-.01-.05-.01-.05v-.05s0-.05,0-.05v-.05s.02-.05.02-.05v-.05s.02-.05.02-.05l.02-.05.02-.05.02-.04.02-.04.02-.04.03-.04.03-.03.03-.03.03-.03.03-.03.03-.03.04-.03.04-.03.04-.02.04-.02.05-.02.05-.02.05-.02h.05s.1-.03.1-.03l.1-.02.1-.02.1-.02.1-.02.1-.02.1-.02.1-.02.1-.02.1-.02.1-.02.1-.02.1-.02.1-.02h.1s.1-.02.1-.02h.1s.1-.02.1-.02h.1s.1-.02.1-.02l.21-.02.21-.02.21-.02.21-.02.21-.02h.21s.21-.02.21-.02h.21s.21-.02.21-.02h.21s.41-.03.41-.03l.41-.02.4-.02.4-.02h.2s.2-.02.2-.02h.2s.2-.02.2-.02h.05s.05,0,.05,0h.04Z"/>
          <path class="cls-6" d="M291.03,139.27h.05s.05.01.05.01h.05s.05.02.05.02l.05.02.05.02.05.02.05.02.04.02.04.03.04.03.03.03.03.03.03.03.03.04.03.04.03.04.02.04.02.05.02.05.02.05.02.05v.05s.02.05.02.05v.05s.01.05.01.05v.05s0,.05,0,.05v.05s-.01.05-.01.05v.05s-.02.05-.02.05l-.02.05-.02.05-.02.05-.02.05-.02.04-.03.04-.03.04-.03.04-.03.03-.03.03-.03.03-.04.03-.04.03-.04.03-.04.02-.05.02-.05.02-.05.02h-.05s-.05.02-.05.02h-.05s-.11.03-.11.03l-.12.02-.12.02h-.12s-.12.02-.12.02h-.12s-.12.02-.12.02h-.12s-.12.02-.12.02h-.12s-.12.02-.12.02h-.12s-.12.01-.12.01h-.12s-.12.01-.12.01h-.12s-.23.01-.23.01h-.23s-.22.01-.22.01h-.22s-.44,0-.44,0h-.21s-.21,0-.21,0h-.21s-.21.01-.21.01h-.21s-.1.01-.1.01h-.1s-.1,0-.1,0h-.1s-.1.01-.1.01h-.1s-.1.01-.1.01h-.1s-.1.02-.1.02h-.1s-.1.02-.1.02h-.1s-.1.02-.1.02h-.1s-.1.02-.1.02h-.1s-.1.03-.1.03l-.1.02-.1.02-.1.02-.1.02-.1.02-.09.02-.09.02-.09.02-.1.03h-.05s-.05.02-.05.02h-.05s-.05.01-.05.01h-.05s-.05,0-.05,0h-.05s-.05-.01-.05-.01h-.05s-.05-.02-.05-.02l-.05-.02-.05-.02-.05-.02-.05-.02-.04-.03-.04-.03-.04-.03-.03-.03-.03-.03-.03-.03-.03-.04-.03-.04-.03-.04-.02-.04-.02-.05-.02-.05-.02-.05-.02-.05v-.05s-.02-.05-.02-.05v-.05s-.01-.05-.01-.05v-.05s0-.05,0-.05v-.05s.01-.05.01-.05v-.05s.02-.05.02-.05v-.05s.03-.05.03-.05l.02-.05.02-.05.02-.04.03-.04.03-.04.03-.04.03-.03.03-.03.03-.03.04-.03.04-.03.04-.03.05-.02.05-.02.05-.02.05-.02h.05s.11-.04.11-.04l.12-.03.12-.03.12-.02.12-.02.12-.02.12-.02.12-.02.12-.02.12-.02.12-.02.12-.02h.12s.12-.02.12-.02h.12s.12-.02.12-.02h.12s.12-.02.12-.02h.12s.12-.02.12-.02h.12s.12-.01.12-.01h.12s.12-.01.12-.01h.11s.12-.01.12-.01h.23s.22-.01.22-.01h.22s.22,0,.22,0h.22s.43,0,.43,0h.21s.21,0,.21,0h.21s.21-.01.21-.01h.1s.1,0,.1,0h.1s.1-.01.1-.01h.1s.1-.01.1-.01h.1s.1-.02.1-.02h.1s.1-.02.1-.02h.1s.1-.02.1-.02h.1s.1-.02.1-.02h.1s.1-.03.1-.03h.05s.05-.01.05-.01h.1s0-.02,0-.02Z"/>
          <path class="cls-6" d="M287.54,139.91h.06s.06.02.06.02l.06.02.06.02.06.02.06.03.05.03.05.03.05.04.05.04.04.05.04.05.03.05.03.05.03.05.03.06.02.06.02.06v.06s.02.06.02.06v.06s.02.34.02.34l.02.34.02.34.02.34v.34s.02.34.02.34v.34s.02.34.02.34v.34s.02.34.02.34v.34s.02.34.02.34l.02.67.02.67v.67s.02.67.02.67v.67s.03.67.03.67l.02.67v.33s.02.33.02.33v.33s.02.33.02.33v.33s.02.33.02.33v.06s0,.06,0,.06v.06s-.02.06-.02.06l-.02.06-.02.06-.02.06-.03.05-.03.05-.03.05-.04.05-.04.05-.05.04-.05.04-.05.03-.05.03-.05.03-.06.02-.06.02-.06.02h-.06s-.06.01-.06.01h-.06s-.06.01-.06.01h-.06s-.06,0-.06,0l-.06-.02-.06-.02-.06-.02-.06-.02-.05-.03-.05-.03-.05-.03-.05-.04-.05-.04-.04-.05-.04-.05-.03-.05-.03-.05-.03-.05-.02-.06-.02-.06-.02-.06v-.06s-.02-.06-.02-.06v-.06s-.02-.34-.02-.34v-.34s-.02-.34-.02-.34v-.34s-.02-.34-.02-.34v-.34s-.03-.67-.03-.67l-.02-.67v-.67s-.02-.67-.02-.67v-.67s-.03-.67-.03-.67l-.02-.67v-.33s-.02-.33-.02-.33v-.33s-.02-.33-.02-.33v-.33s-.02-.33-.02-.33v-.33s-.03-.33-.03-.33l-.02-.33-.02-.33-.02-.33-.02-.33v-.06s0-.06,0-.06v-.06s.02-.06.02-.06l.02-.06.02-.06.02-.06.03-.06.03-.05.03-.05.03-.05.04-.05.05-.04.05-.04.05-.03.05-.03.05-.03.06-.03.06-.02.06-.02h.06s.06-.02.06-.02h.06s.06,0,.06,0h.06s0,0,0,0Z"/>
          <path class="cls-6" d="M299.86,138.39h.06s.06.01.06.01l.06.02.06.02h0l.05.02.05.02.05.02h0l.05.03.05.03h0l.03.03.03.03h0l.03.03.03.03h.01s.03.04.03.04l.02.03.03.03.03.06.03.05.02.04.02.04.02.04.03.07.03.08.03.07.03.07.02.07.04.12.03.09.02.05.03.09.02.09.02.09.02.09.02.09.02.09.02.09.02.09.02.09.02.09v.09s.02.09.02.09v.09s.02.09.02.09v.09s.02.09.02.09v.09s.02.09.02.09v.09s.01.08.01.08v.09s.01.08.01.08v.08s.01.08.01.08v.16s.01.16.01.16v.16s0,.16,0,.16v.31s0,.31,0,.31v.62s0,.62,0,.62v.62s0,.62,0,.62v.62s0,.31,0,.31v.31s0,.31,0,.31v.31s0,.31,0,.31v.31s.01.31.01.31v.31s.02.31.02.31v.31s.02.31.02.31v.31s.02.31.02.31l.02.31v.15s.02.15.02.15v.15s.02.15.02.15v.15s.02.15.02.15v.15s.02.15.02.15v.15s.02.15.02.15v.15s.02.16.02.16v.06s0,.07,0,.07v.06s-.02.06-.02.06l-.02.06-.02.06-.02.06-.03.06-.03.06-.04.05-.04.05-.05.05-.05.05-.05.04-.06.03-.06.03-.06.03-.06.02-.06.02h-.06s-.06.02-.06.02h-.07s-.06,0-.06,0h-.07s-.06-.02-.06-.02l-.06-.02-.06-.02-.06-.02-.06-.03-.06-.03-.05-.04-.05-.04-.05-.05-.05-.05-.04-.05-.03-.06-.03-.06-.03-.06-.02-.06-.02-.06v-.06s-.02-.06-.02-.06l-.02-.16v-.16s-.02-.16-.02-.16v-.16s-.02-.16-.02-.16v-.16s-.02-.16-.02-.16v-.16s-.02-.16-.02-.16v-.16s-.02-.16-.02-.16v-.16s-.03-.31-.03-.31v-.32s-.02-.31-.02-.31v-.32s-.02-.31-.02-.31v-.31s-.02-.31-.02-.31v-.31s-.01-.31-.01-.31v-.31s0-.31,0-.31v-.31s0-.31,0-.31v-.94s0-.62,0-.62v-.62s0-.62,0-.62v-.62s0-.31,0-.31v-.31s0-.14,0-.14v-.03s-.02.06-.02.06l-.09.23-.17.46-.09.24-.09.24-.09.24-.05.12-.05.12-.05.12-.05.12-.05.12-.05.12-.05.12-.05.12-.05.12-.05.12-.06.14-.04.09-.05.1-.05.1-.03.06-.03.05-.03.06-.03.06-.03.06-.03.06-.03.06-.03.06-.04.06-.04.06-.05.06-.05.06-.05.06-.05.06-.05.06-.03.03-.03.03-.03.03-.03.03-.03.03-.03.03-.04.03-.04.03-.04.03-.05.03-.05.02-.05.02-.05.02-.03.02-.06.02-.06.02h-.06s-.06.02-.06.02h-.06s-.06,0-.06,0h-.06s-.06-.02-.06-.02l-.06-.02-.06-.02-.06-.02-.06-.03-.06-.03h0l-.05-.03-.05-.04-.05-.05-.05-.05-.03-.03-.04-.06-.04-.06-.05-.08-.06-.09-.13-.22-.15-.25-.29-.48-.1-.17-.03-.05v-.02s-.07-.09-.07-.09l-.06-.1-.06-.1-.06-.1-.06-.1-.06-.1-.06-.1-.05-.1-.1-.19-.1-.19-.1-.19-.05-.09-.05-.09-.05-.09-.05-.09-.05-.08-.05-.08-.05-.08-.05-.08-.02-.03-.03-.03-.03-.03-.03-.03-.03-.03-.03-.03-.03-.03-.03-.03-.03-.03-.03-.03-.03-.03-.03-.03-.02-.02v.11s.01.13.01.13l.02.26v.13s.01.06.01.06v.06s.01.23.01.23v.23s.02.23.02.23v.23s.01.12.01.12v.12s.01.12.01.12v.12s0,.12,0,.12v.12s0,.24,0,.24v.17s0,.17,0,.17v.17s0,.17,0,.17v.17s-.01.17-.01.17l-.02.33v.33s-.02.33-.02.33v.32s-.01.16-.01.16v.16s-.01.13-.01.13v.13s0,.25,0,.25v.25s0,.25,0,.25v.25s0,.25,0,.25v.25s0,.25,0,.25v.26s0,.26,0,.26v.52s.01.52.01.52v.26s.01.26.01.26v.06s0,.06,0,.06l-.02.06-.02.06-.02.06-.03.06-.03.06-.03.06-.04.05-.05.05-.05.05-.05.05-.05.04-.06.03-.06.03-.06.03-.06.02-.06.02h-.06s-.06.01-.06.01h-.07s-.06.01-.06.01h-.06s-.06-.02-.06-.02l-.06-.02-.06-.02-.06-.03-.06-.03-.06-.03-.05-.04-.05-.05-.05-.05-.05-.05-.04-.05-.03-.06-.03-.06-.03-.06-.02-.06-.02-.06v-.06s-.01-.06-.01-.06v-.07s-.01-.26-.01-.26v-.26s0-.52,0-.52l-.02-.52v-.26s0-.26,0-.26v-.26s0-.26,0-.26v-.27s0-.27,0-.27v-.27s0-.27,0-.27v-.27s0-.13,0-.13v-.13s.01-.17.01-.17v-.17s.02-.34.02-.34v-.33s.02-.33.02-.33v-.33s.01-.16.01-.16v-.16s.01-.16.01-.16v-.16s.01-.16.01-.16v-.16s0-.1,0-.1v-.1s0-.11,0-.11v-.11s0-.11,0-.11v-.11s0-.11,0-.11v-.11s-.02-.23-.02-.23v-.23s-.02-.23-.02-.23v-.23s-.01-.05-.01-.05v-.05s0-.11,0-.11l-.02-.25v-.14s-.02-.15-.02-.15v-.08s0-.08,0-.08v-.08s0-.08,0-.08v-.08s0-.09,0-.09v-.09s0-.09,0-.09v-.09s.01-.09.01-.09v-.09s.02-.09.02-.09v-.05s.01-.05.01-.05v-.05s.02-.05.02-.05v-.05s.02-.05.02-.05v-.05s.02-.05.02-.05v-.05s.02-.05.02-.05l.02-.05.02-.05.02-.05.02-.05.02-.05.03-.06.02-.04.03-.05.03-.04h0s.04-.05.04-.05l.03-.04h.01s.04-.05.04-.05l.04-.03h.01s.04-.05.04-.05l.04-.03h.01s.04-.03.04-.03l.04-.02h.01s.04-.03.04-.03l.04-.02h.01s.04-.02.04-.02h.04s.05-.02.05-.02l.08-.02h.08s.07-.01.07-.01h.06s.06,0,.06,0h.06s.05,0,.05,0l.05.02h.05s.05.02.05.02h.04s.04.02.04.02h.04s.04.02.04.02l.07.02.07.03.07.03.06.03.06.03.06.03.06.03.06.03.06.03.05.03.05.03.05.03.05.03.08.06.08.05.06.05.04.03.03.03.06.05.05.05.05.05.05.05.05.05.05.05.05.05.05.05.04.05.04.05.04.05.04.05.04.05.04.05.04.05.03.05.03.05.03.05.03.05.03.05.07.1.06.1.06.1.06.1.06.1.06.1.06.1.06.1.11.2.1.19.1.19.05.09.05.09.05.09.05.09.05.09.05.08.05.08.06.09.02.04.04.06.1.16.03-.07.05-.1.05-.11.05-.11.05-.11.05-.11.05-.11.05-.11.05-.11.05-.11.09-.23.09-.23.09-.23.17-.46.09-.23.09-.24.09-.24.09-.24.05-.12.05-.12.05-.12.05-.11h0s.01-.03.01-.03l.02-.06.07-.19.04-.12.05-.13.05-.13.03-.07.03-.07.03-.07.03-.07.03-.07.03-.07.03-.07.03-.07.03-.07.04-.07.04-.07.02-.04.02-.03.02-.03.03-.04.03-.04.03-.04.03-.04.04-.04.05-.05.05-.05.06-.05.08-.05.05-.02.04-.02.04-.02h.01s.06-.02.06-.02l.06-.02h.06s.06-.02.06-.02h.06s.06,0,.06,0l.02.02Z"/>
          <path class="cls-6" d="M303.8,138.52h.07s.07.02.07.02l.06.02.06.02.06.03.06.03.06.04.05.04.05.05.05.05.04.05.04.06.03.06.03.06.02.06.02.06.02.07v.07s.01.07.01.07v.07s-.02.31-.02.31l-.02.31v.31s-.02.31-.02.31v.31s-.02.31-.02.31v.31s-.02.31-.02.31v.31s-.01.31-.01.31v.31s-.01.31-.01.31v.31s0,.31,0,.31v.63s0,.31,0,.31v.31s.01.31.01.31v.31s.01.16.01.16v.16s.01.16.01.16v.16s.01.16.01.16v.16s.02.16.02.16v.16s.02.16.02.16v.16s.02.16.02.16v.16s.02.16.02.16v.15s.02.15.02.15v.15s.02.15.02.15v.15s.02.15.02.15l.02.15.02.15.02.15.02.15.02.16v.04s0,.05,0,.05v.05s0,.05,0,.05v.09s0,.09,0,.09v.19s0,.2,0,.2v.2s-.01.21-.01.21v.1s0,.1,0,.1v.21s0,.1,0,.1v.1s0,.09,0,.09v.04s0,.05,0,.05v.04s0,.04,0,.04v.04s0,.04,0,.04v.03s.01.03.01.03v.03s.01.03.01.03v.03s.01.02.01.02h.01s.02.01.02.01h.02s.02.01.02.01h.03s.03.01.03.01h.03s.03.01.03.01h.03s.03,0,.03,0h.03s.04,0,.04,0h.04s.04,0,.04,0h.04s.04,0,.04,0h.04s.04,0,.04,0h.04s.05,0,.05,0h.04s.09-.01.09-.01h.09s.21-.03.21-.03l.22-.02.22-.02.22-.02.23-.02.22-.02h.11s.11-.02.11-.02h.11s.11-.03.11-.03l.11-.02.11-.02.11-.02.1-.02.1-.02.1-.02.1-.02.1-.02.1-.02.1-.02.1-.02.1-.02.1-.02.1-.02.09-.03.1-.03.06-.02h.07s.07-.01.07-.01h.07s.07,0,.07,0h.07s.07.03.07.03l.06.02.06.02.06.03.06.03.06.04.05.04.05.05.05.05.04.05.04.06.03.06.03.06.02.06.02.06v.07s.02.07.02.07v.07s0,.07,0,.07v.07s-.02.07-.02.07l-.02.06-.02.06-.03.06-.03.06-.03.06-.04.06-.05.05-.05.05-.05.05-.06.04-.06.03-.06.03-.06.03-.06.02-.11.03-.12.03-.12.03-.12.03-.12.03-.12.03-.12.02-.12.02-.12.02-.12.02-.12.02-.12.02-.12.02-.12.02-.12.02-.12.02-.12.02-.12.02h-.12s-.12.02-.12.02l-.23.03-.23.02-.23.02-.23.02-.22.02-.22.02h-.11s-.12.02-.12.02h-.06s-.06,0-.06,0h-.06s-.06,0-.06,0h-.06s-.07,0-.07,0h-.07s-.07,0-.07,0h-.07s-.07,0-.07,0h-.08s-.08-.01-.08-.01h-.08s-.08-.02-.08-.02h-.08s-.08-.03-.08-.03l-.08-.02-.08-.02-.08-.02-.08-.02-.05-.02-.04-.02-.04-.02-.04-.02-.04-.02-.04-.02-.04-.02-.04-.02-.04-.02-.04-.02-.04-.02-.04-.02-.04-.03-.04-.03-.04-.03-.04-.03-.03-.03-.03-.03-.03-.03-.03-.03-.03-.03-.03-.03-.03-.03-.03-.04-.04-.06-.04-.07-.03-.07-.03-.07-.03-.06-.02-.06-.02-.06-.02-.06-.02-.06-.02-.06v-.06s-.02-.06-.02-.06v-.06s-.02-.06-.02-.06v-.06s-.01-.06-.01-.06l-.02-.06v-.06s-.01-.06-.01-.06v-.06s-.01-.06-.01-.06v-.06s-.01-.12-.01-.12v-.12s0-.12,0-.12v-.12s0-.12,0-.12v-.12s0-.12,0-.12v-.22s.01-.2.01-.2v-.19s0-.08,0-.08v-.13s0-.05,0-.05v-.02s0-.02,0-.02h0s0-.02,0-.02l-.02-.15-.02-.16-.02-.16-.02-.16-.02-.16-.02-.16v-.16s-.02-.16-.02-.16v-.16s-.02-.16-.02-.16v-.16s-.02-.16-.02-.16v-.16s-.02-.16-.02-.16v-.16s-.02-.16-.02-.16v-.16s-.01-.16-.01-.16l-.02-.16v-.16s-.01-.16-.01-.16v-.16s-.01-.16-.01-.16v-.16s-.01-.32-.01-.32v-.32s-.01-.32-.01-.32v-.32s0-.32,0-.32v-.65s0-.32,0-.32v-.32s.01-.32.01-.32v-.32s.02-.32.02-.32v-.32s.02-.32.02-.32v-.32s.02-.32.02-.32v-.31s.02-.31.02-.31l.02-.31.02-.31v-.07s.02-.07.02-.07l.02-.06.02-.06.03-.06.03-.06.03-.06.04-.06.05-.05.05-.05.05-.05.05-.04.06-.03.06-.03.06-.03.06-.02.06-.02h.07s.07-.01.07-.01h.07s.07-.01.07-.01l.06.06Z"/>
        </g>
        <g>
          <path class="cls-11" d="M231.93,28.25v19.21c-.02,10.05,4.33,18.2,14.37,18.21h10.63s.69,13.84.69,13.84c0,0-.5,5.39,2.68,5.88,2.76.42,5.52-3.69,5.52-3.69l10.85-16.02h15.32c10.04.02,14.29-8.14,14.29-18.18v-19.21c.02-10.05-4.22-18.2-14.26-18.21l-45.69-.03c-10.04,0-14.4,8.15-14.4,18.19h0Z"/>
          <path class="cls-6" d="M278.07,46.53h-.07s-.07-.02-.07-.02l-.07-.02-.07-.02-.07-.02-.07-.03-.07-.03-.06-.04-.06-.04-.06-.05-.06-.05-.06-.05-.06-.06-.06-.06-.06-.06-.05-.06-.05-.06-.05-.06-.04-.06-.04-.07-.03-.07-.03-.07-.02-.07-.02-.07-.02-.07v-.07s-.02-.07-.02-.07v-.07s0-.07,0-.07v-.07s.02-.07.02-.07l.02-.07.02-.07.02-.07.03-.07.03-.07.04-.06.04-.06.05-.06.05-.06.05-.06.06-.06.06-.06.06-.06.06-.05.19-.15.19-.15.19-.14.19-.14.19-.14.19-.14.19-.14.19-.14.19-.14.19-.13.19-.13.2-.13.4-.26.4-.26.4-.25.4-.25.39-.25.39-.25.39-.25.39-.25.19-.12.19-.12.19-.13.19-.13.07-.05.08-.06.08-.05.08-.05.08-.05.08-.05.16-.08.17-.08.17-.08.32-.17.16-.08.15-.07.15-.08.06-.04.06-.04h-.02s-.05-.04-.05-.04l-.05-.02-.1-.05-.1-.05-.11-.05-.09-.04-.1-.04-.1-.04-.1-.04-.1-.04-.1-.04-.21-.07-.21-.07-.22-.07-.45-.16-.18-.06-.17-.06-.17-.06-.18-.06-.18-.06-.18-.06-.18-.06-.18-.05-.18-.05-.18-.05-.36-.1-.74-.19-.14-.04-.15-.04-.29-.08-.29-.08-.28-.08-.28-.08-.27-.08-.54-.17-.27-.08-.26-.07-.26-.07-.13-.04-.13-.04-.13-.04-.13-.04-.13-.04-.13-.03-.13-.03-.13-.03-.13-.03-.13-.03-.07-.02-.07-.02-.07-.03-.07-.03-.07-.04-.06-.04-.06-.05-.06-.05-.06-.05-.06-.05-.06-.06-.06-.06-.05-.06-.05-.06-.05-.06-.04-.06-.04-.06-.03-.07-.03-.07-.03-.07-.02-.07-.02-.07v-.07s-.02-.07-.02-.07v-.07s0-.07,0-.07v-.07s.02-.07.02-.07l.02-.07.02-.07.02-.07.03-.07.03-.07.04-.07.04-.06.04-.06.05-.06.05-.06.06-.06.06-.06.06-.06.06-.05.06-.05.06-.05.06-.04.07-.04.07-.03.07-.03.07-.03.07-.02.07-.02h.07s.07-.02.07-.02h.07s.07,0,.07,0h.07s.07.02.07.02l.07.02.15.03.15.04.15.04.15.04.15.04.15.04.15.04.15.04.15.04.15.04.29.08.29.08.28.08.55.17.27.08.27.08.27.08.26.07.26.07.13.04.13.04.74.19.37.1.19.06.19.06.19.06.19.06.19.06.19.06.19.06.19.06.19.06.19.06.45.16.23.08.23.08.23.08.12.05.12.05.12.05.12.05.12.05.13.06.15.06.15.06.15.07.07.04.07.04.07.04.07.04.07.05.07.05.07.05.07.05.07.05.07.05.07.05.06.05.06.05.06.05.06.05.06.05.06.06.06.06.06.06.06.06.06.06.06.06.06.06.06.06.06.06.05.06.05.07.05.07.05.07.05.07.04.08.04.08.04.08.03.08.03.09.03.09.02.09.02.09v.09s.02.09.02.09v.09s0,.09,0,.09v.09s-.02.09-.02.09v.09s-.03.09-.03.09l-.02.08-.03.08-.03.08-.03.08-.03.07-.04.07-.04.07-.04.06-.04.06-.04.06-.04.06-.05.06-.05.06-.05.06-.05.06-.05.06-.08.09-.09.09-.09.08-.09.08-.09.07-.09.07-.09.06-.09.06-.09.06-.09.06-.09.06-.09.06-.09.06-.09.06-.09.06-.09.06-.18.09-.18.09-.18.09-.32.17-.15.07-.14.07-.13.07-.06.03-.06.03-.05.03-.05.03-.04.02-.04.03-.19.13-.19.13-.19.13-.19.13-.4.26-.4.25-.4.25-.39.25-.39.25-.39.25-.39.25-.38.25-.19.13-.19.13-.19.13-.19.13-.19.13-.19.13-.19.13-.19.13-.18.13-.18.13-.18.13-.18.14-.06.05-.06.05-.06.04-.07.04-.07.03-.07.03-.07.02-.07.02-.07.02h-.07s-.07.02-.07.02h-.07s-.07,0-.07,0l.05-.1Z"/>
          <path class="cls-6" d="M320.21,152.23l-.04-.02-.04-.03-.04-.03-.04-.03-.04-.03-.04-.04-.04-.04-.03-.04-.03-.04-.03-.05-.03-.05-.03-.05-.02-.05-.02-.05-.02-.05v-.06s-.02-.06-.02-.06v-.06s-.01-.05-.01-.05v-.06s0-.06,0-.06v-.06s.01-.06.01-.06v-.06s.02-.06.02-.06l.02-.05v-.06s.03-.05.03-.05l.02-.05.02-.05.03-.05.03-.05.03-.05.03-.05.04-.05.04-.05.04-.04.04-.04.05-.03.05-.03.05-.03.05-.03.05-.03.05-.03.05-.02.16-.06.16-.06.16-.05.16-.05.16-.05.16-.05.16-.05.16-.05.16-.05.15-.05.15-.05.16-.04.31-.09.31-.09.31-.08.31-.08.31-.08.31-.08.31-.08.31-.08.15-.04.15-.04.15-.05.15-.05.06-.02.07-.02h.06s.06-.03.06-.03h.06s.06-.03.06-.03l.12-.02.12-.02.12-.02.24-.04.12-.02.11-.02.11-.02h.05s.05-.02.05-.02h0s-.02-.04-.02-.04l-.02-.02-.05-.06-.05-.06-.05-.06-.05-.05-.05-.05-.05-.05-.05-.05-.05-.05-.05-.05-.11-.1-.11-.1-.11-.11-.23-.22-.09-.08-.09-.08-.09-.08-.09-.08-.09-.08-.09-.08-.09-.08-.09-.07-.09-.07-.09-.07-.19-.16-.4-.31-.07-.06-.08-.06-.15-.13-.15-.13-.15-.13-.15-.13-.14-.12-.28-.25-.14-.12-.14-.11-.14-.11-.07-.06-.07-.06-.07-.06-.07-.06-.07-.06-.07-.05-.07-.05-.07-.05-.07-.05-.07-.05-.04-.03-.04-.03-.04-.04-.04-.04-.03-.04-.03-.04-.03-.05-.03-.05-.03-.05-.02-.05-.02-.05-.02-.05v-.05s-.02-.06-.02-.06v-.06s-.01-.05-.01-.05v-.05s0-.06,0-.06v-.06s0-.06,0-.06v-.06s.02-.06.02-.06l.02-.05v-.06s.03-.05.03-.05l.02-.05.02-.05.03-.05.03-.05.03-.05.03-.05.04-.05.04-.05.04-.04.04-.04.04-.04.05-.03.05-.03.05-.03.05-.03.05-.03.05-.02.05-.02.05-.02h.05s.06-.02.06-.02h.05s.05,0,.05,0h.05s.05,0,.05,0h.05s.04.02.04.02h.05s.04.02.04.02l.04.02.04.02.04.03.04.03.08.05.08.06.08.06.08.06.08.06.08.06.08.06.08.06.08.06.08.06.15.13.15.13.15.13.29.25.14.12.14.12.14.12.14.11.14.11.07.06.07.06.4.31.2.16.1.09.1.08.1.09.1.09.1.09.1.09.1.09.1.09.1.09.09.09.23.22.12.11.12.11.12.11.06.06.06.06.06.06.06.06.06.06.06.07.07.08.07.08.07.09.03.04.03.04.03.04.03.04.03.05.03.05.03.05.03.05.03.05.03.05.03.05.03.05.03.05.03.05.03.05.03.05.02.05.02.05.02.05.02.05.02.05.02.05.02.06.02.06.02.06v.06s.02.06.02.06v.06s.02.06.02.06v.06s0,.07,0,.07v.07s0,.07,0,.07v.07s-.02.07-.02.07v.07s-.02.07-.02.07v.07s-.04.07-.04.07v.07s-.04.07-.04.07l-.03.07-.03.07-.04.06-.03.07-.04.06-.03.05-.04.05-.04.05-.04.05-.04.05-.04.04-.04.04-.04.04-.04.04-.04.04-.04.04-.04.03-.04.03-.04.03-.04.03-.04.03-.08.05-.08.04-.08.04-.08.04-.08.03-.08.03-.07.02-.07.02-.07.02-.07.02-.07.02-.07.02-.07.02-.07.02-.07.02-.07.02-.13.02-.13.02-.13.02-.24.04-.11.02-.1.02-.1.02h-.04s-.04.01-.04.01h-.04s-.04.02-.04.02h-.03s-.03.02-.03.02l-.15.05-.15.05-.15.05-.15.05-.31.09-.31.08-.31.08-.31.08-.31.08-.31.08-.31.08-.3.09-.15.05-.15.05-.15.05-.15.05-.15.05-.15.05-.15.05-.15.05-.14.05-.14.05-.14.05-.15.06-.05.02-.05.02h-.05s-.06.02-.06.02h-.05s-.05,0-.05,0h-.05s-.05,0-.05,0h-.05s-.04-.02-.04-.02h-.05s-.04-.02-.04-.02l-.04-.02.06-.06Z"/>
          <path class="cls-6" d="M261.45,50.02l-.11-.02-.11-.03-.11-.04-.1-.05-.1-.05-.09-.06-.09-.06-.08-.07-.08-.07-.07-.08-.06-.09-.06-.09-.06-.1-.05-.1-.04-.1-.03-.11-.02-.11v-.11s0-.11,0-.11v-.11s.03-.11.03-.11l.03-.11.04-.11.05-.1.19-.44.2-.45.2-.44.2-.44.2-.44.2-.44.21-.44.21-.44.21-.44.21-.43.21-.43.21-.43.21-.43.21-.43.44-.84.44-.84.44-.84.44-.84.44-.84.21-.42.21-.42.21-.42.21-.42.21-.43.21-.42.2-.43.2-.42.14-.29.13-.29.13-.29.13-.29.13-.29.13-.29.12-.29.12-.3.12-.3.12-.3.25-.59.25-.6.25-.6.13-.31.13-.31.13-.31.13-.31.13-.31.14-.31.14-.31.14-.31.14-.31.07-.16.07-.15.07-.15.07-.15.07-.15.07-.15.08-.15.08-.15.08-.15.08-.15.08-.15.08-.15.08-.15.08-.15.06-.09.06-.09.07-.08.08-.07.08-.07.09-.06.09-.06.1-.05.1-.05.11-.03.11-.03.11-.02h.11s.11,0,.11,0h.11s.11.03.11.03l.11.03.1.04.1.05.1.06.09.06.09.06.08.07.07.08.07.08.06.09.06.1.05.1.04.1.04.11.03.11.02.11v.11s0,.11,0,.11v.11s-.03.11-.03.11l-.03.11-.04.1-.05.1-.06.1-.08.14-.07.13-.07.13-.07.13-.07.13-.07.14-.07.14-.07.14-.07.14-.07.14-.07.14-.06.14-.06.14-.06.14-.14.28-.13.29-.13.29-.13.29-.13.29-.13.29-.13.29-.12.3-.12.3-.25.59-.25.59-.25.6-.13.31-.13.31-.13.31-.13.31-.13.31-.14.31-.14.31-.14.31-.14.31-.15.31-.21.44-.21.44-.21.43-.21.43-.21.43-.21.43-.21.43-.22.43-.44.85-.44.84-.44.84-.44.84-.44.84-.21.42-.21.42-.21.42-.21.42-.21.42-.2.42-.2.43-.2.43-.2.43-.2.43-.19.43-.19.43-.19.43-.19.44-.05.1-.06.09-.06.09-.07.08-.07.08-.08.07-.09.06-.09.06-.1.06-.1.05-.1.04-.11.03-.11.02h-.11s-.11,0-.11,0h-.11s.04-.04.04-.04Z"/>
          <path class="cls-6" d="M313.36,153.26h-.06s-.06-.03-.06-.03l-.06-.02-.06-.03-.06-.03-.05-.03-.05-.04-.05-.04-.05-.04-.04-.05-.04-.05-.03-.05-.03-.06-.03-.06-.02-.06-.02-.06v-.06s-.01-.06-.01-.06v-.06s0-.06,0-.06l.02-.06.02-.06.02-.06.03-.06.11-.24.11-.25.11-.24.11-.24.11-.24.11-.24.12-.24.12-.24.12-.24.12-.24.12-.24.12-.24.12-.24.12-.24.24-.47.24-.47.24-.47.24-.47.24-.47.12-.23.12-.23.12-.23.12-.23.12-.24.12-.23.11-.24.11-.23.08-.16.07-.16.07-.16.07-.16.07-.16.07-.16.07-.16.07-.16.07-.16.07-.16.14-.33.14-.33.14-.33.07-.17.07-.17.07-.17.07-.17.07-.17.08-.17.08-.17.08-.17.08-.17.04-.09.04-.08.04-.08.04-.08.04-.08.04-.08.05-.08.05-.08.05-.08.05-.08.05-.08.05-.08.05-.08.05-.08.04-.05.04-.05.04-.05.05-.04.05-.04.05-.04.05-.03.06-.03.06-.03.06-.02.06-.02h.06s.06-.01.06-.01h.06s.06,0,.06,0l.06.02.06.02.06.02.06.03.06.03.05.03.05.04.05.04.04.05.04.05.04.05.03.06.03.06.02.06.02.06.02.06v.06s.01.06.01.06v.06s0,.06,0,.06l-.02.06-.02.06-.02.06-.03.06-.03.06-.05.08-.04.07-.04.07-.04.07-.04.07-.04.08-.04.08-.04.08-.04.08-.04.08-.04.08-.04.08-.04.08-.04.08-.08.15-.07.16-.07.16-.07.16-.07.16-.07.16-.07.16-.07.16-.07.16-.14.33-.14.33-.14.33-.07.17-.07.17-.07.17-.07.17-.07.17-.08.17-.08.17-.08.17-.08.17-.08.17-.12.24-.12.24-.12.24-.12.24-.12.24-.12.24-.12.24-.12.24-.24.47-.24.47-.24.47-.24.47-.24.47-.12.23-.12.23-.12.23-.12.23-.12.23-.11.23-.11.24-.11.24-.11.24-.11.24-.11.24-.11.24-.11.24-.11.24-.03.06-.03.05-.04.05-.04.05-.04.05-.05.04-.05.04-.05.03-.06.03-.06.03-.06.02-.06.02h-.06s-.06.01-.06.01h-.06s-.06,0-.06,0l.02-.02Z"/>
          <path class="cls-6" d="M256.56,45.32h-.09s-.08-.02-.08-.02l-.08-.02-.08-.02-.08-.03-.08-.04-.07-.04-.07-.05-.07-.05-.07-.06-.06-.06-.06-.06-.06-.06-.08-.09-.07-.08-.08-.08-.08-.08-.08-.08-.08-.08-.08-.08-.08-.08-.09-.08-.09-.08-.09-.08-.09-.08-.09-.08-.09-.08-.1-.08-.1-.08-.1-.08-.1-.08-.1-.08-.1-.08-.1-.08-.1-.08-.11-.08-.1-.08-.22-.17-.22-.16-.22-.16-.23-.16-.23-.16-.23-.16-.47-.32-.47-.32-.24-.17-.24-.17-.24-.17-.24-.17-.24-.17-.23-.17-.23-.18-.12-.09-.12-.08-.11-.09-.11-.09-.11-.09-.08-.06h0l-.03-.02-.04-.02-.05-.03-.12-.06-.3-.16-.17-.09-.18-.1-.09-.06-.09-.06-.09-.06-.09-.06-.09-.06-.09-.06-.09-.06-.09-.07-.09-.07-.09-.07-.06-.05-.05-.05-.06-.06-.06-.06-.06-.06-.06-.06-.06-.07-.06-.08-.06-.09-.06-.1-.05-.12-.04-.11-.03-.09-.02-.07-.02-.07v-.07s-.02-.07-.02-.07v-.07s0-.07,0-.07v-.07s0-.07,0-.07v-.07s0-.07,0-.07v-.07s.02-.06.02-.06v-.06s.02-.06.02-.06l.02-.07.03-.12.04-.12.05-.11.05-.11.05-.1.06-.1.06-.09.06-.09.06-.09.06-.08.06-.08.06-.08.06-.07.06-.07.06-.07.06-.07.06-.06.06-.06.06-.06.06-.06.06-.06.07-.06.07-.06.07-.06.07-.06.07-.06.07-.06.07-.06.14-.1.14-.1.14-.09.14-.09.13-.08.13-.08.12-.07.12-.07.11-.06.11-.06.19-.1.16-.08.16-.08.16-.08.16-.08.16-.08.16-.08.16-.07.16-.07.16-.07.16-.07.16-.07.16-.07.16-.07.16-.07.16-.07.16-.07.16-.07.32-.13.32-.13.32-.13.32-.13.32-.12.32-.12.62-.24.62-.24.31-.12.31-.12.31-.12.31-.12.3-.12.3-.13.3-.13.15-.07.15-.07.15-.07.15-.07.14-.07.14-.07.14-.07.14-.07.14-.07.14-.07.14-.07.14-.07.14-.07.14-.07.07-.04.08-.04.08-.03.08-.03.08-.02.08-.02h.08s.08,0,.08,0h.09s.08,0,.08,0h.08s.08.03.08.03l.08.03.08.03.08.04.08.04.07.05.07.05.07.06.06.06.06.06.06.06.06.06.06.07.05.07.05.07.04.08.03.08.03.08.02.08.02.08v.08s.02.08.02.08v.09s0,.08,0,.08v.09s-.03.08-.03.08l-.02.08-.03.08-.03.08-.04.08-.05.07-.05.07-.05.07-.06.06-.06.06-.06.06-.06.06-.07.06-.07.05-.07.05-.15.08-.16.08-.16.08-.16.08-.16.08-.16.07-.16.07-.16.07-.16.07-.16.07-.16.07-.16.07-.16.07-.16.07-.32.14-.32.13-.32.13-.32.13-.32.13-.32.12-.32.12-.62.24-.62.24-.31.12-.31.12-.31.12-.3.12-.3.12-.3.13-.15.07-.15.07-.15.07-.15.07-.14.07-.14.07-.14.07-.14.07-.14.07-.14.07-.14.07-.14.07-.14.07-.14.07-.14.07-.14.07-.13.07-.17.09-.08.05-.09.06-.09.06-.1.06-.1.06-.1.06-.1.06-.1.07-.1.07-.1.07-.05.04-.05.04-.05.04-.05.04-.05.04-.05.04h0v.02s.16.08.16.08l.3.17.14.08.07.05.07.05.07.05.07.05.08.06.07.06.12.09.1.07.1.07.1.07.1.07.1.07.21.16.21.16.22.16.22.16.22.16.23.16.23.16.47.32.48.32.24.17.24.17.24.17.24.18.24.18.24.18.12.09.12.09.12.09.12.09.12.09.12.09.12.09.12.09.11.1.12.1.11.1.11.1.11.1.11.1.11.1.11.1.11.1.11.11.11.11.11.11.1.11.1.11.1.11.09.11.06.06.06.07.05.07.05.07.04.08.04.08.03.08.02.08.02.08v.08s.02.08.02.08v.09s0,.09,0,.09v.08s-.03.08-.03.08l-.02.08-.03.08-.03.08-.04.08-.04.07-.05.07-.05.07-.06.06-.06.06-.06.06-.06.06-.07.06-.07.05-.07.05-.07.04-.08.04-.08.03-.08.03-.08.02-.08.02h-.08s-.08,0-.08,0h-.09s-.06.04-.06.04Z"/>
          <path class="cls-6" d="M267.99,151.95h-.05s-.05-.01-.05-.01h-.05s-.05-.02-.05-.02l-.05-.02-.05-.02-.04-.02-.04-.03-.04-.03-.04-.03-.04-.03-.04-.04-.03-.04-.05-.05-.04-.05-.05-.05-.05-.05-.05-.05-.05-.05-.05-.05-.05-.05-.05-.05-.05-.05-.05-.05-.05-.05-.05-.05-.05-.05-.06-.05-.06-.05-.06-.05-.06-.05-.06-.05-.06-.05-.06-.05-.06-.05-.06-.05-.06-.05-.12-.09-.12-.09-.12-.09-.13-.09-.13-.09-.13-.09-.26-.18-.26-.18-.13-.09-.13-.09-.13-.09-.13-.09-.13-.09-.13-.09-.13-.1-.07-.05-.07-.05-.06-.05-.06-.05-.06-.05-.05-.04h-.02s-.02-.02-.02-.02l-.03-.02-.07-.04-.17-.09-.09-.05-.1-.06-.05-.03-.05-.03-.05-.03-.05-.03-.05-.04-.05-.04-.05-.04-.05-.04-.05-.04-.05-.04-.03-.03-.03-.03-.03-.03-.03-.03-.03-.04-.03-.04-.03-.04-.03-.05-.03-.05-.03-.06-.03-.07-.02-.06-.02-.05v-.04s-.02-.04-.02-.04v-.04s-.01-.04-.01-.04v-.04s0-.04,0-.04v-.04s0-.04,0-.04v-.04s0-.04,0-.04v-.04s.01-.04.01-.04v-.04s.01-.04.01-.04v-.04s.03-.07.03-.07l.02-.07.03-.06.03-.06.03-.06.03-.06.03-.05.03-.05.03-.05.04-.05.04-.05.04-.05.04-.04.04-.04.04-.04.04-.04.04-.04.04-.04.04-.04.04-.04.04-.04.04-.04.04-.03.04-.03.04-.03.04-.03.04-.03.04-.03.08-.06.08-.06.08-.05.08-.05.07-.05.07-.05.07-.04.07-.04.06-.04.06-.04.1-.06.09-.05.09-.05.09-.05.09-.05.09-.05.09-.05.09-.04.09-.04.09-.04.09-.04.09-.04.09-.04.09-.04.09-.04.09-.04.09-.04.09-.04.18-.07.18-.07.18-.07.18-.07.18-.07.18-.07.35-.13.35-.13.17-.07.17-.07.17-.07.17-.07.17-.07.17-.07.17-.07.08-.04.08-.04.08-.04.08-.04.08-.04.08-.04.08-.04.08-.04.08-.04.08-.04.08-.04.08-.04.08-.04.08-.04.04-.02.05-.02.05-.02.05-.02h.05s.05-.02.05-.02h.05s.05,0,.05,0h.05s.05,0,.05,0h.05s.05.02.05.02l.05.02.05.02.05.02.05.02.04.03.04.03.04.03.04.03.04.04.03.04.03.04.03.04.03.04.03.04.02.05.02.05.02.05v.05s.02.05.02.05v.05s.01.05.01.05v.05s0,.05,0,.05v.05s-.02.05-.02.05v.05s-.03.05-.03.05l-.02.05-.02.05-.03.04-.03.04-.03.04-.03.04-.03.04-.04.04-.04.03-.04.03-.04.03-.04.03-.08.05-.09.05-.09.05-.09.05-.09.05-.09.04-.09.04-.09.04-.09.04-.09.04-.09.04-.09.04-.09.04-.09.04-.18.08-.18.07-.18.07-.18.07-.18.07-.18.07-.18.07-.35.13-.35.13-.17.07-.17.07-.17.07-.17.07-.17.07-.17.07-.08.04-.08.04-.08.04-.08.04-.08.04-.08.04-.08.04-.08.04-.08.04-.08.04-.08.04-.08.04-.08.04-.08.04-.08.04-.08.04-.07.04-.09.05-.05.03-.05.03-.05.03-.06.04-.06.04-.06.04-.06.04-.06.04-.06.04-.06.04-.03.02-.03.02-.03.02-.03.02-.03.02-.03.02h0s.08.06.08.06l.17.09.08.05.04.03.04.03.04.03.04.03.05.03.04.03.07.05.06.04.06.04.06.04.06.04.06.04.12.09.12.09.12.09.12.09.12.09.13.09.13.09.26.18.27.18.13.09.13.09.13.09.13.1.13.1.13.1.07.05.07.05.07.05.07.05.07.05.07.05.07.05.07.05.06.06.07.06.06.06.06.06.06.06.06.06.06.06.06.06.06.06.06.06.06.06.06.06.06.06.06.06.06.06.05.06.03.04.03.04.03.04.03.04.02.05.02.05.02.05v.05s.02.05.02.05v.05s.01.05.01.05v.05s0,.05,0,.05v.05s-.02.05-.02.05v.05s-.03.05-.03.05l-.02.05-.02.05-.02.04-.03.04-.03.04-.03.04-.03.04-.04.04-.04.03-.04.03-.04.03-.04.03-.04.02-.05.02-.05.02-.05.02h-.05s-.05.02-.05.02h-.05s-.05,0-.05,0h-.05s-.04.02-.04.02Z"/>
        </g>
        <g>
          <path class="cls-11" d="M145.01,47.53v19.21c-.02,10.05-4.37,18.2-14.41,18.19h-10.63s-.71,13.82-.71,13.82c0,0,.5,5.39-2.68,5.88-2.76.42-5.52-3.69-5.52-3.69l-10.83-16.04h-15.32c-10.04-.02-14.27-8.18-14.27-18.22v-19.21c.02-10.05,4.26-18.2,14.3-18.19l45.69.03c10.04,0,14.38,8.17,14.38,18.21h0Z"/>
          <path class="cls-6" d="M95.71,43.03h.1s.1,0,.1,0h.1s.1.02.1.02h.1s.1.03.1.03l.1.02.1.02.1.03.1.03.1.03.1.03.1.04.1.04.1.05.09.05.09.05.09.05.09.06.09.06.09.06.09.07.08.07.08.07.08.07.08.08.08.08.07.08.07.08.07.09.07.09.06.09.06.09.06.09.07.12.07.12.07.12.06.12.06.12.06.12.05.13.05.13.05.13.05.13.04.13.04.13.04.13.04.13.03.13.03.13.03.13.03.13.02.13.02.13.02.13.02.13.02.13v.13s.02.13.02.13v.12s.02.12.02.12v.12s.01.12.01.12v.12s0,.12,0,.12v.12s0,.12,0,.12v.12s0,.12,0,.12v.12s0,.12,0,.12v.12s-.02.12-.02.12v.12s-.02.12-.02.12v.12s-.03.23-.03.23l-.03.23-.03.23-.03.22-.03.22-.03.22-.03.21-.03.21-.04.21-.07.39-.02.11-.03.11-.04.11-.05.1-.06.1-.06.1-.07.09-.08.09-.08.08-.09.07-.09.07-.1.06-.1.05-.11.04-.11.04-.11.03-.11.02h-.11s-.12.01-.12.01h-.12s-.11-.02-.11-.02l-.11-.02-.11-.03-.11-.04-.1-.05-.1-.06-.1-.06-.09-.07-.09-.08-.08-.08-.07-.09-.07-.09-.06-.1-.05-.1-.04-.11-.04-.11-.03-.11-.02-.11v-.11s-.01-.12-.01-.12v-.11s.02-.11.02-.11l.07-.39.03-.19.03-.19.03-.19.03-.19.03-.19.03-.19.02-.19.02-.19.02-.19v-.09s.02-.09.02-.09v-.09s0-.09,0-.09v-.09s0-.09,0-.09v-.09s0-.09,0-.09v-.09s0-.09,0-.09v-.09s0-.09,0-.09v-.09s0-.09,0-.09v-.08s0-.08,0-.08v-.08s-.01-.08-.01-.08v-.08s-.02-.08-.02-.08v-.08s-.02-.08-.02-.08v-.08s-.03-.08-.03-.08l-.02-.08-.02-.07-.02-.07-.02-.07-.02-.07-.02-.07-.02-.07-.02-.07-.02-.07-.02-.07-.03-.06-.03-.06-.03-.06-.03-.06-.03-.06-.03-.06-.03-.06-.04-.06-.02-.03-.02-.03-.02-.02-.02-.02-.02-.02-.02-.02v-.02s-.03,0-.03,0h-.01s-.01-.02-.01-.02h-.01s0-.02,0-.02h0s0-.02,0-.02h-.01s-.01,0-.01,0h-.01s-.01,0-.01,0h-.02s-.02,0-.02,0h-.02s-.02,0-.02,0h-.06s-.02,0-.02,0h-.02s-.03,0-.03,0h-.03s-.03,0-.03,0h-.03s-.03.01-.03.01h-.03s-.03.01-.03.01h-.03s-.04.02-.04.02h-.04s-.04.02-.04.02h-.04s-.04.02-.04.02h-.04s-.04.03-.04.03l-.04.02-.04.02-.04.02-.04.02-.04.02-.04.02-.09.04-.09.05-.09.05-.09.05-.09.05-.09.06-.09.06-.09.06-.09.06-.09.07-.09.07-.09.07-.09.07-.09.07-.09.07-.09.07-.09.07-.08.08-.08.08-.08.07-.08.07-.08.07-.07.07-.07.07-.07.07-.06.07-.06.07-.06.06-.05.06-.05.06-.04.05-.04.05-.03.05-.03.05-.05.08-.06.08-.05.08-.05.09-.05.09-.05.09-.05.09-.05.09-.05.09-.05.09-.05.09-.05.09-.05.09-.05.09-.05.09-.05.09-.04.09-.04.09-.04.09-.04.09-.04.1-.04.1-.04.1-.04.1-.04.1-.04.1-.04.1-.04.1-.03.1-.03.1-.03.1-.03.1-.03.1-.03.1-.03.1-.03.1-.03.1-.03.1-.03.1-.03.1-.03.1-.03.1-.02.1-.02.11-.02.11-.02.11-.02.11-.02.11-.02.11-.02.1-.04.22-.04.21-.03.22-.03.22-.03.22-.02.22-.02.22-.02.22-.02.22v.22s-.02.22-.02.22v.22s0,.22,0,.22v.22s0,.22,0,.22v.22s0,.22,0,.22v.22s.02.22.02.22v.22s.02.22.02.22l.02.22.02.22.02.22.02.22.03.22.03.22.03.22.03.22.03.22.04.22.04.21.04.21.04.21.04.21.05.21.05.21.05.21.05.21.02.07.02.07.02.07.02.07.02.07.02.07.02.07.02.07.02.06.02.06.02.06.02.06.02.06.02.06.03.06.03.06.03.06.03.06.03.06.03.05.03.05.03.05.03.05.03.05.03.05.03.05.03.05.03.05.03.05.03.05.03.05.03.04.03.04.03.04.03.04.03.04.03.04.03.04.03.04.03.04.03.04.03.04.03.03.03.03.03.03.03.03.03.03.03.03.03.03.04.03.03.03.03.03.04.03.03.03.04.02.04.02.04.02.03.02.04.02.04.02.04.02.04.02.04.02.04.02.04.02.04.02.04.02.04.02h.04s.04.03.04.03h.04s.04.02.04.02h.04s.04.02.04.02h.04s.04.02.04.02h.04s.04.02.04.02h.04s.04,0,.04,0h.04s.04,0,.04,0h.04s.04,0,.04,0h.04s.04,0,.04,0h.04s.04,0,.04,0h.04s.04,0,.04,0h.04s.04,0,.04,0h.04s.05,0,.05,0h.05s.05,0,.05,0h.05s.05-.01.05-.01h.05s.05-.02.05-.02h.05s.05-.02.05-.02h.05s.05-.02.05-.02h.05s.05-.03.05-.03l.05-.02.05-.02.05-.02.05-.02.05-.02.05-.02.05-.02.06-.02.06-.02.06-.02.06-.03.06-.03.06-.03.06-.03.06-.03.06-.03.06-.03.06-.04.06-.04.06-.04.06-.04.07-.05.1-.06.1-.05.11-.04.11-.04.11-.03.11-.02h.12s.11-.01.11-.01h.12s.11.02.11.02l.11.02.11.03.11.04.11.05.1.06.1.06.09.07.09.08.08.08.07.09.07.09.06.1.05.1.04.11.04.11.03.11.02.11v.11s.01.12.01.12v.11s-.02.11-.02.11l-.02.11-.03.11-.04.11-.05.1-.06.1-.06.1-.07.09-.08.09-.08.08-.09.07-.09.07-.09.06-.09.06-.09.06-.09.06-.1.05-.09.05-.1.05-.1.05-.1.05-.1.05-.1.05-.1.04-.1.04-.1.04-.1.04-.1.04-.1.04-.1.04-.1.03-.1.03-.1.03-.1.03-.1.03-.1.03-.1.02-.1.02-.1.02-.1.02-.1.02-.1.02h-.1s-.1.03-.1.03h-.1s-.1.02-.1.02h-.1s-.1.01-.1.01h-.1s-.1,0-.1,0h-.19s-.1,0-.1,0h-.1s-.1,0-.1,0h-.1s-.1-.02-.1-.02h-.09s-.09-.02-.09-.02l-.09-.02-.09-.02-.09-.02-.09-.02-.09-.02-.09-.02-.09-.02-.09-.03-.09-.03-.09-.03-.09-.03-.09-.03-.09-.03-.09-.04-.09-.04-.09-.04-.08-.04-.08-.04-.08-.04-.08-.04-.08-.05-.08-.05-.08-.05-.08-.05-.08-.05-.08-.05-.08-.05-.08-.05-.08-.06-.07-.06-.07-.06-.07-.06-.07-.06-.07-.06-.07-.06-.07-.06-.07-.07-.07-.07-.07-.07-.06-.07-.06-.07-.06-.07-.06-.07-.06-.07-.06-.07-.06-.07-.06-.08-.06-.08-.06-.08-.06-.08-.05-.08-.05-.08-.05-.08-.05-.08-.05-.08-.05-.08-.05-.08-.05-.08-.05-.09-.05-.09-.05-.09-.04-.09-.04-.09-.04-.09-.04-.09-.04-.09-.04-.09-.04-.09-.04-.09-.04-.09-.04-.09-.04-.1-.03-.1-.03-.1-.03-.1-.03-.1-.03-.1-.03-.1-.03-.1-.03-.1-.03-.1-.06-.24-.06-.24-.05-.24-.05-.24-.05-.24-.05-.24-.05-.24-.04-.25-.04-.25-.04-.25-.04-.25-.03-.25-.03-.25-.03-.25-.03-.25-.02-.25-.02-.25-.02-.26-.02-.26v-.26s-.02-.26-.02-.26v-.26s-.01-.26-.01-.26v-.26s0-.26,0-.26v-.26s0-.26,0-.26v-.26s.02-.26.02-.26l.02-.26.02-.26.02-.26.02-.26.03-.26.03-.26.04-.26.04-.26.04-.26.05-.25.02-.13.02-.13.03-.13.03-.13.03-.13.03-.13.03-.13.03-.13.03-.13.03-.13.03-.12.03-.13.04-.12.04-.13.04-.12.04-.12.04-.12.04-.12.04-.12.04-.12.04-.12.04-.12.04-.12.05-.12.05-.12.05-.12.05-.12.05-.12.05-.12.05-.12.05-.12.05-.12.05-.12.06-.12.06-.12.06-.12.06-.12.06-.12.06-.11.06-.11.06-.11.06-.11.07-.11.07-.11.07-.11.07-.11.07-.11.07-.11.07-.11.08-.11.07-.09.07-.1.07-.1.08-.1.08-.1.08-.1.09-.1.09-.1.09-.1.09-.1.1-.1.1-.1.1-.1.11-.1.11-.1.11-.1.11-.1.12-.1.12-.1.12-.1.12-.1.13-.1.13-.1.13-.09.13-.09.14-.09.14-.09.14-.09.14-.09.14-.08.15-.08.15-.08.15-.08.15-.07.08-.04.08-.03.08-.03.08-.03.08-.03.08-.03.08-.03.08-.03.08-.03.08-.03.08-.02.08-.02.09-.02.09-.02.09-.02.09-.02.09-.02.09-.02h.09s.09-.03.09-.03h.09s.09-.02.09-.02h.09s.09,0,.09,0h.09s.09,0,.09,0l-.18-.04Z"/>
          <path class="cls-6" d="M109.37,45.09h.12s.12,0,.12,0h.12s.12.02.12.02h.12s.12.03.12.03l.12.02.12.02.12.02.12.02.11.03.12.03.11.03.11.03.1.03.1.04.1.04.1.05.09.06.09.07.08.07.08.08.07.08.07.09.06.09.05.1.05.1.04.1.03.11.02.11.02.11v.11s.01.11.01.11v.11s-.02.11-.02.11l-.02.11-.03.11-.04.1-.04.1-.05.1-.06.09-.06.09-.07.08-.08.08-.08.07-.09.07-.09.06-.1.05-.1.05-.1.04-.11.03-.11.02-.11.02h-.11s-.11.01-.11.01h-.11s-.11-.02-.11-.02l-.11-.02-.11-.03-.07-.02-.05-.02h-.05s-.05-.03-.05-.03h-.05s-.05-.02-.05-.02h-.05s-.06-.02-.06-.02h-.06s-.06-.02-.06-.02h-.06s-.06,0-.06,0h-.06s-.06,0-.06,0h-.06s-.06,0-.06,0h-.12s-.06,0-.06,0h-.06s-.06,0-.06,0h-.06s-.06.01-.06.01h-.06s-.06.02-.06.02h-.06s-.07.02-.07.02h-.06s-.07.03-.07.03l-.07.02-.07.02-.07.02-.07.02-.07.02-.07.02-.07.02-.07.02-.07.02-.07.02-.07.02-.07.03-.07.03-.07.03-.07.03-.07.03-.07.03-.07.03-.06.03-.06.03-.06.03-.06.04-.06.04-.06.04-.06.04-.06.04-.06.04-.06.04-.06.04-.06.04-.06.04-.06.04-.06.04-.06.05-.06.05-.06.05-.05.05-.05.05-.05.05-.05.05-.05.05-.05.05-.05.05-.05.05-.05.05-.05.05-.05.05-.05.05-.04.05-.04.05-.04.05-.04.05-.04.05-.04.05-.04.05-.04.06-.04.06-.03.06-.03.06-.03.06-.03.06-.03.06-.03.06-.03.06-.03.06-.02.06-.02.06-.02.06-.02.06-.02.06-.02.06-.02.06-.02.06-.02.06-.02.06v.06s-.02.06-.02.06v.06s-.02.06-.02.06v.06s-.02.06-.02.06v.06s0,.06,0,.06v.06s0,.06,0,.06v.06s0,.06,0,.06v.06s0,.06,0,.06v.06s0,.06,0,.06v.06s.01.06.01.06v.06s.02.06.02.06v.06s.02.06.02.06v.06s.03.06.03.06l.02.06.02.06.02.06.02.06.02.06.03.06.03.06.03.06.03.06.03.06.04.06.04.06.04.06.04.06.04.06.04.07.05.07.05.07.05.07.05.07.05.07.05.07.05.07.05.07.11.14.12.14.12.14.12.14.08.09.08.09.08.09.08.09.09.09.09.09.09.09.09.09.19.18.19.18.19.18.2.18.2.19.22.21.24.23.25.24.13.13.13.13.14.13.14.14.14.14.14.15.14.15.14.15.14.15.14.16.14.16.14.16.14.17.14.17.14.17.14.17.13.18.13.18.07.09.06.09.06.09.06.09.06.09.06.09.06.09.06.09.06.09.06.1.06.1.05.1.05.1.05.1.05.1.05.1.05.1.05.1.05.1.04.1.04.1.04.11.04.11.04.11.04.11.03.11.03.11.03.11.03.11.02.11.02.12.02.12v.12s.03.12.03.12v.12s.01.12.01.12v.12s0,.12,0,.12v.12s-.02.12-.02.12l-.02.12-.02.13-.02.13-.03.13-.03.13-.04.12-.04.12-.05.12-.05.12-.06.12-.06.12-.07.12-.07.11-.08.11-.08.11-.08.11-.09.1-.09.1-.1.1-.1.09-.1.09-.11.09-.11.09-.11.08-.11.08-.12.08-.12.08-.12.07-.13.07-.13.07-.13.06-.13.06-.14.06-.14.06-.14.06-.15.05-.16.06-.16.05-.17.05-.16.05-.17.04-.17.04-.17.04-.17.03-.16.03-.17.03-.17.02-.16.02-.16.02-.16.02h-.16s-.15.02-.15.02h-.11s-.11,0-.11,0h-.11s-.11-.03-.11-.03l-.11-.03-.1-.04-.1-.04-.1-.05-.09-.06-.09-.06-.09-.07-.08-.08-.07-.08-.07-.09-.06-.09-.05-.1-.05-.1-.04-.1-.03-.11-.03-.11-.02-.11v-.11s-.01-.11-.01-.11v-.11s.02-.11.02-.11l.02-.11.03-.11.04-.1.04-.1.05-.1.06-.09.06-.09.07-.08.08-.08.08-.07.09-.07.09-.06.1-.05.1-.05.1-.04.11-.03.11-.03.11-.02h.11s.13-.02.13-.02h.12s.11-.02.11-.02h.11s.11-.03.11-.03l.11-.02.11-.02.11-.02.11-.02.11-.02.11-.02.11-.03.11-.03.1-.03.1-.03.1-.04.09-.03.09-.03.08-.03.08-.03.07-.03.07-.03.06-.03.06-.03.05-.03.05-.03.05-.03.04-.03.04-.03.04-.03.03-.03.03-.03.03-.02.02-.02.02-.02.02-.02.02-.02v-.02s.02-.02.02-.02v-.02s.02-.02.02-.02v-.02s.02-.02.02-.02h0v-.03s0-.02,0-.02v-.02s0-.02,0-.02v-.02s0-.02,0-.02v-.02s0-.02,0-.02v-.02s0-.02,0-.02v-.03s0-.06,0-.06v-.03s0-.03,0-.03v-.04s0-.04,0-.04v-.04s-.01-.04-.01-.04l-.02-.04v-.05s-.02-.05-.02-.05l-.02-.05-.02-.05-.02-.05-.02-.05-.02-.05-.02-.06-.02-.06-.02-.06-.03-.06-.03-.06-.03-.06-.03-.06-.03-.06-.03-.06-.04-.07-.04-.06-.04-.07-.04-.07-.04-.07-.04-.07-.04-.07-.05-.07-.05-.07-.05-.07-.05-.07-.05-.07-.1-.14-.11-.14-.11-.14-.11-.14-.11-.14-.12-.14-.12-.14-.12-.14-.12-.14-.12-.14-.12-.13-.12-.13-.12-.13-.12-.13-.12-.12-.12-.12-.12-.12-.12-.12-.23-.23-.22-.21-.21-.2-.2-.18-.2-.19-.2-.19-.21-.2-.2-.2-.11-.1-.1-.1-.1-.11-.1-.11-.1-.11-.1-.11-.1-.11-.1-.11-.14-.15-.14-.16-.14-.16-.14-.17-.07-.09-.07-.09-.07-.09-.07-.09-.07-.09-.07-.1-.07-.1-.07-.1-.07-.1-.07-.1-.07-.1-.06-.11-.06-.11-.06-.11-.06-.11-.06-.11-.06-.12-.06-.12-.05-.12-.05-.12-.05-.13-.05-.13-.04-.13-.04-.13-.03-.13-.03-.12-.03-.12-.03-.13-.02-.12-.02-.13-.02-.13v-.12s-.02-.12-.02-.12v-.12s-.01-.12-.01-.12v-.12s0-.12,0-.12v-.12s0-.12,0-.12v-.12s.02-.12.02-.12v-.12s.03-.12.03-.12l.02-.12.02-.12.02-.12.02-.12.03-.12.03-.11.03-.11.03-.11.04-.11.04-.11.04-.11.04-.11.04-.11.05-.11.05-.11.05-.11.05-.1.05-.1.05-.1.06-.1.06-.1.06-.1.06-.1.06-.1.06-.1.06-.1.07-.09.07-.09.07-.09.07-.09.07-.09.07-.09.07-.09.08-.09.08-.08.08-.08.08-.08.08-.08.08-.08.08-.08.08-.08.08-.08.09-.08.09-.08.09-.07.09-.07.09-.07.09-.07.09-.07.09-.07.09-.07.09-.06.09-.06.1-.06.1-.06.1-.06.1-.06.1-.06.1-.06.1-.05.1-.05.1-.05.1-.05.1-.05.1-.05.1-.05.11-.05.11-.04.11-.04.11-.04.11-.04.11-.04.11-.04.11-.03.11-.03.11-.03.11-.03.11-.03.11-.03.11-.02.11-.02.11-.02.11-.02.11-.02.11-.02h.11s.11-.03.11-.03h.11s.11-.02.11-.02h.11s.11-.01.11-.01h.12s.11,0,.11,0h.12s0-.16,0-.16Z"/>
          <path class="cls-6" d="M121.28,46.49h.11s.11,0,.11,0h.11s.11.02.11.02h.11s.11.02.11.02h.11s.11.03.11.03l.11.02.11.02.11.02.11.02.11.02.11.03.11.03.11.03.11.03.11.04.11.04.11.04.11.04.11.04.11.05.1.05.1.05.1.05.1.05.1.06.09.05.09.06.09.06.08.07.08.08.07.08.07.09.06.09.05.09.05.1.04.1.03.1.03.1.02.11v.11s.02.11.02.11v.11s-.02.11-.02.11l-.02.11-.03.11-.03.1-.04.1-.05.1-.05.09-.06.09-.07.08-.07.08-.08.08-.08.07-.09.06-.09.06-.1.05-.1.04-.1.04-.1.03-.11.02h-.11s-.11.02-.11.02h-.21s-.11-.02-.11-.02l-.11-.02-.1-.03-.1-.04-.1-.05-.09-.05-.06-.04-.05-.03-.05-.03-.05-.03-.05-.02-.05-.02-.05-.02-.05-.02-.05-.02-.05-.02-.05-.02-.05-.02-.05-.02-.06-.02-.05-.02h-.05s-.06-.03-.06-.03h-.06s-.06-.02-.06-.02h-.06s-.06-.02-.06-.02h-.06s-.06-.02-.06-.02h-.06s-.06,0-.06,0h-.06s-.06,0-.06,0h-.06s-.06,0-.06,0h-.06s-.06,0-.06,0h-.06s-.06,0-.06,0h-.06s-.06,0-.06,0h-.06s-.06.01-.06.01h-.06s-.06.01-.06.01h-.06s-.06.02-.06.02h-.06s-.06.02-.06.02h-.06s-.06.03-.06.03l-.06.02-.06.02-.06.02-.06.02-.06.02-.06.02-.06.02-.06.02-.06.02-.06.02-.06.02-.05.02-.05.02-.05.02-.05.03-.05.03-.05.03-.05.03-.05.03-.05.03-.05.03-.05.03-.05.03-.05.03-.05.03-.04.03-.04.03-.04.03-.04.03-.04.03-.04.04-.04.04-.04.04-.04.04-.04.04-.04.04-.03.04-.03.04-.03.04-.03.04-.03.04-.03.04-.03.04-.03.04-.03.04-.03.04-.02.04-.02.04-.02.04-.02.04-.02.04-.02.04-.02.04-.02.04-.02.04-.02.04-.02.05v.04s-.03.05-.03.05v.05s-.02.05-.02.05v.05s-.02.05-.02.05v.05s-.02.05-.02.05v.05s0,.05,0,.05v.05s0,.05,0,.05v.05s0,.05,0,.05v.11s0,.05,0,.05v.06s0,.06,0,.06v.06s.02.06.02.06v.06s.02.06.02.06v.06s.03.06.03.06l.02.07v.03s.02.03.02.03v.03s.02.03.02.03v.03s.02.03.02.03v.03s.03.03.03.03v.03s.03.03.03.03l.02.03v.03s.05.07.05.07l.03.07.04.07.04.07.04.07.05.07.05.07.05.07.05.07.05.07.06.07.06.07.06.07.06.07.06.07.07.07.07.07.07.07.07.07.07.08.07.07.08.07.16.15.16.15.06.06.06.06.06.06.07.06.07.06.07.06.07.06.07.06.15.12.15.12.16.12.16.12.17.12.17.12.35.25.18.13.18.13.18.14.18.14.18.14.18.15.09.08.09.08.09.08.09.08.09.08.09.08.09.08.09.08.09.09.09.09.09.09.09.09.09.09.09.09.09.09.09.1.08.1.08.1.08.1.08.11.08.11.08.11.08.11.07.11.07.12.07.12.07.12.06.12.05.11.05.11.05.11.05.11.05.11.04.11.04.11.04.11.04.11.03.11.03.11.03.11.02.11.02.11.02.11.02.11.02.11v.11s.02.11.02.11v.11s.02.11.02.11v.11s0,.11,0,.11v.11s0,.11,0,.11v.11s0,.11,0,.11v.11s-.02.11-.02.11v.11s-.03.11-.03.11l-.02.11-.02.11-.02.11-.02.11-.03.1-.03.1-.03.1-.03.1-.03.1-.04.1-.04.1-.04.1-.04.1-.04.1-.05.09-.05.09-.05.09-.05.09-.05.09-.05.09-.05.09-.06.09-.06.09-.06.09-.06.08-.06.08-.06.08-.06.08-.06.08-.07.08-.07.08-.07.08-.07.08-.07.07-.07.07-.07.07-.08.07-.08.07-.08.07-.08.07-.08.07-.08.06-.08.06-.08.06-.08.06-.08.06-.08.06-.09.06-.09.06-.09.05-.09.05-.09.05-.09.05-.09.05-.09.05-.09.05-.09.05-.09.04-.1.04-.1.04-.1.04-.1.04-.1.04-.1.03-.1.03-.1.03-.1.03-.1.03-.1.03-.1.02-.1.02-.1.02-.11.02-.11.02-.11.02-.11.02h-.11s-.11.02-.11.02h-.11s-.11.02-.11.02h-.11s-.11,0-.11,0h-.11s-.11,0-.11,0h-.11s-.11,0-.11,0h-.11s-.11,0-.11,0h-.11s-.11-.02-.11-.02h-.11s-.11-.03-.11-.03l-.11-.02-.11-.02-.11-.02-.11-.02-.1-.02-.1-.03-.1-.04-.1-.04-.1-.05-.09-.06-.09-.06-.08-.07-.08-.07-.07-.08-.07-.08-.06-.09-.05-.09-.05-.1-.04-.1-.03-.1-.03-.1-.02-.11v-.11s-.02-.11-.02-.11v-.11s0-.11,0-.11l.02-.11.03-.11.03-.1.04-.1.05-.1.05-.09.06-.09.07-.09.07-.08.08-.08.08-.07.09-.06.09-.06.09-.05.1-.05.1-.04.1-.03.11-.02.11-.02h.11s.11,0,.11,0h.11s.11.02.11.02l.11.02.07.02h.06s.06.02.06.02h.06s.06.02.06.02h.06s.06.02.06.02h.06s.06,0,.06,0h.06s.06,0,.06,0h.06s.06,0,.06,0h.11s.06,0,.06,0h.06s.05,0,.05,0h.06s.05-.01.05-.01h.06s.05-.01.05-.01h.05s.05-.02.05-.02h.05s.05-.02.05-.02h.05s.05-.02.05-.02h.05s.05-.03.05-.03l.05-.02.05-.02.05-.02.05-.02.05-.02.05-.02.05-.02.05-.02.05-.02.05-.02.05-.02.05-.02.05-.02.05-.03.05-.03.05-.03.05-.03.05-.03.05-.03.05-.03.05-.03.05-.03.04-.03.04-.03.04-.03.04-.03.04-.03.04-.04.04-.04.04-.04.04-.04.04-.04.04-.04.04-.04.04-.04.04-.04.03-.04.03-.04.03-.04.03-.04.03-.04.03-.04.03-.04.03-.04.03-.04.03-.04.03-.04.03-.04.02-.04.02-.04.02-.04.02-.04.02-.04.02-.04.02-.04.02-.04.02-.04.02-.04.02-.04v-.05s.03-.04.03-.04v-.05s.02-.05.02-.05v-.05s.02-.05.02-.05v-.05s.02-.05.02-.05v-.05s0-.05,0-.05v-.05s0-.05,0-.05v-.05s0-.05,0-.05v-.05s0-.05,0-.05v-.05s0-.05,0-.05v-.05s0-.05,0-.05v-.05s-.01-.05-.01-.05v-.05s-.02-.05-.02-.05v-.05s-.02-.05-.02-.05v-.05s-.02-.05-.02-.05v-.05s-.03-.05-.03-.05l-.02-.05-.02-.05-.02-.05-.02-.05-.02-.05-.02-.05-.02-.05-.03-.06-.03-.05-.03-.06-.03-.06-.04-.06-.04-.06-.04-.06-.04-.06-.04-.06-.04-.06-.05-.06-.05-.06-.05-.06-.05-.06-.05-.06-.05-.06-.06-.06-.06-.06-.06-.06-.06-.06-.06-.06-.06-.06-.07-.06-.07-.06-.07-.06-.07-.06-.07-.06-.07-.06-.07-.06-.07-.06-.16-.12-.16-.12-.16-.12-.17-.12-.17-.12-.17-.12-.35-.25-.18-.13-.18-.13-.18-.13-.18-.14-.18-.14-.18-.14-.09-.08-.09-.07-.09-.08-.09-.08-.09-.08-.09-.08-.09-.08-.09-.08-.18-.17-.18-.17-.09-.09-.09-.09-.09-.09-.09-.09-.09-.1-.09-.1-.09-.1-.09-.1-.09-.1-.09-.11-.09-.11-.09-.11-.09-.11-.09-.12-.08-.12-.08-.12-.08-.13-.08-.13-.08-.13-.07-.14-.07-.14-.07-.14-.04-.08-.03-.07-.03-.07-.03-.08-.03-.08-.03-.08-.03-.08-.03-.08-.03-.08-.02-.08-.02-.08-.02-.08-.03-.12-.03-.13-.03-.13-.02-.13-.02-.13-.02-.13-.02-.12v-.12s-.02-.12-.02-.12v-.12s-.01-.12-.01-.12v-.12s0-.12,0-.12v-.12s0-.12,0-.12v-.12s.02-.12.02-.12l.02-.12.02-.12.02-.12.02-.12.03-.11.03-.11.03-.11.03-.11.04-.11.04-.11.04-.11.04-.11.04-.11.05-.1.05-.1.05-.1.05-.1.05-.1.06-.1.06-.1.06-.09.06-.09.06-.09.07-.09.07-.09.07-.09.07-.09.07-.08.07-.08.07-.08.08-.08.08-.08.08-.08.08-.07.08-.07.08-.07.08-.07.08-.07.09-.07.09-.07.09-.06.09-.06.09-.06.09-.06.09-.06.09-.06.09-.05.09-.05.09-.05.09-.05.1-.05.1-.05.1-.05.1-.04.1-.04.1-.04.1-.04.1-.04.1-.04.1-.03.1-.03.1-.03.1-.03.1-.03.11-.03.1-.03.11-.02.11-.02.11-.02.11-.02.11-.02.11-.02h.11s.11-.03.11-.03h.11s.11-.02.11-.02h.11s.11-.01.11-.01h.11s.11,0,.11,0h.22s-.08.02-.08.02Z"/>
        </g>
        <g>
          <path class="cls-9" d="M169.32,261.55c-3.03,13.19-4.88,38.29,8.42,50.89,14.44,13.68,82.09-4.91,87.87-6.56,1.84-.53-7.99-16.81-9.49-20.75-.54-1.41-51.26,5.79-52.38,3.81-5.31-9.41-3.52-31.96-8.4-79.39-1.68-16.29-14.02-20.1-14.02-20.1-19.21.99-8.16,55.33-12.01,72.1Z"/>
          <path class="cls-19" d="M176.04,318.1c3.33-12.62,4.75-26.9,7.82-51.52,0,0,17.22-3.36,19.64-17.35,1.04-6.04-9.98-17.82-11.91-29.16-2.1-12.39-4.31-24.83-4.31-24.83,0,0-26.15-20.51-28.76-18.5l-20.78,2.75s-38.92,95.87-51.82,138.61"/>
          <path class="cls-9" d="M140.12,179.7c-19.59-1.23-33.12,49.4-38.91,67.5-4.56,14.25-9.28,41.84,2.78,57.41,13.1,16.92,58.4,11.36,67.09,9.44,7.11-1.57,3.24-23.07,2.17-27.62-.38-1.62-19.53.37-22.14.35-18.49-.13-27.23-.52-21.93-19.12,2.46-8.6,12.81-44.29,14.16-53.09,3.18-20.66-3.22-34.86-3.22-34.86"/>
          <path class="cls-8" d="M172.91,285.69c2.63.03,4.35,6.4,3.84,14.22s-3.05,14.14-5.68,14.1c-2.63-.03-4.35-6.4-3.84-14.22s3.05-14.13,5.68-14.1"/>
          <path class="cls-2" d="M168.08,297.7c-4.42,3.89.33,13.06.33,13.06,0,0,3.95-1.31,6.4-.9,6.37,1.07,28.23-2.13,31.28-3.24.49-.17,2.27-.88,2.14-1.65-.19-1.18-2.61-.88-3.32-.86-3.63.12-7.24.96-10.87,1.19-1.17.07-5.38.3-4.88.15,1.2-.36,10.77-3.13,14.3-4.1.9-.25,4.69-1.55,4.33-2.89-.18-.66-5.28.44-5.52.49-3.61.77-13.16,2.37-14.26,2.61-.62.13,11.05-4.02,14.59-5.95,1.05-.57,3.28-1.83,2.64-3.33-.27-.64-4.69,1.3-5.11,1.47-4.14,1.65-16.52,4.91-17.62,4.4-.53-.25,5.05-4.15,6.3-5.94.24-.34.61-3.43-1.94-1.91-8.33,4.94-18.79,7.39-18.79,7.39"/>
          <path class="cls-3" d="M196.82,87.24c-23.63-6.13-27.12-1.07-43.37,3.55-16.25,4.62-21.19,17.73-23.74,33.05s-17.26,16.68-17.24,36.92c.02,20.24,31.75,40.69,31.75,40.69l13.74-10.74s29.27,15.97,42.39,23.59c14.88,8.65,26.11-27.61,26.11-27.61,2.69,11.13-6.48,21.14-6.48,21.14,12.61-3.58,21.79-10.41,21.79-10.41,5.39-15.37-3.8-23.21-3.8-23.21,0,0-7.35-11.52,3.83-18.27,5.11-12.2,4.14-26.23-4.29-33.95-9.21-8.44-9.84-18.01-17.36-27.87-7.52-9.86-23.33-6.88-23.33-6.88h.01Z"/>
          <path class="cls-4" d="M158.71,177.7c-.63,1.03-5.6,10.74,6.14,26.67,4.57,6.19,16.54,8.88,19.29-.88l18.82-48.08c2.12-8.35-1.52-17.27-8.55-21.03-7.6-4.05-30.34-3.63-34.23,4.63l-1.47,38.68h-.01Z"/>
          <path class="cls-4" d="M213.72,158.17c6.51,2.2,14.44-3.72,12.43-11.19-2.02-7.46-8.88-4.3-8.88-4.3l-3.55,15.49"/>
          <path class="cls-1" d="M221.92,138.35c.32-25.62-16.57-46.91-37.71-47.55-21.14-.63-38.53,19.62-38.85,45.24-.32,25.63,26.58,49.96,47.72,50.6s24.61-18.82,28.84-48.28"/>
          <path class="cls-9" d="M138.04,260.08c20.64,6.4,36.43-6.66,36.43-6.66-14.96,24.75-36.43,6.66-36.43,6.66Z"/>
          <ellipse class="cls-17" cx="176.37" cy="155.61" rx="8.63" ry="10.45" transform="translate(-41.01 245.43) rotate(-63.87)"/>
          <g class="cls-20">
            <ellipse class="cls-17" cx="216.73" cy="158.27" rx="10.45" ry="8.63" transform="translate(-50.08 129.39) rotate(-29.96)"/>
          </g>
          <path class="cls-3" d="M216.61,113.99c-12.73-38.42-57.26-29.66-75.53-1.08-18.26,28.58,16.87,77.79,16.87,77.79l1.47-31.44c13.4.76,1.35-17.61,20.59-19.99s15.49-16.47,23.58-25.29,13.02,0,13.02,0h0Z"/>
          <path class="cls-4" d="M164.65,160.34c-7.7,2.1-18.29-4.1-16.86-11.66,1.43-7.56,10.32-4.18,10.32-4.18l6.54,15.84"/>
        </g>
        <g>
          <polygon class="cls-15" points="269.33 318.1 170.61 318.1 171.99 309.32 268.72 303.45 269.33 318.1"/>
          <path class="cls-7" d="M223.01,313.62l110.84.07,18.32-98.75-117.63-8.28-11.54,106.94h0Z"/>
          <path class="cls-11" d="M230.14,318.1h110.15l18.25-102.85-117.13-8.48-11.2,110.65-.07.68Z"/>
          <path class="cls-7" d="M303.31,267.76c-2.52,7.32-9.19,11.25-14.89,8.79s-8.26-10.4-5.74-17.71c2.52-7.32,9.19-11.25,14.89-8.79s8.26,10.4,5.74,17.71Z"/>
        </g>
        <g>
          <path class="cls-10" d="M51.44,203.02s-9.13-8.69-26.23-19.7c-17.08-11.02,12.05-21.17-6.11-37.13C.95,130.22-.66,111.88,11.23,106.17s-3.2-34.41,8.4-36.21c11.6-1.8,20.95,4.35,28.96,18.54,8.01,14.19-4.42,21.61-2.75,31.33,1.67,9.71,12.05,2.94,20.95,17.71,8.89,14.78-22.31,24.99-6.77,39.44,15.53,14.45-8.6,26.04-8.6,26.04h0Z"/>
          <path class="cls-10" d="M73.98,233.39s7.85-3.97,21.95-7.42c14.1-3.44-6.72-19.64,8.75-26.55,15.46-6.91,18.72-20.45,10.4-28.25-8.32-7.81,10.13-22.5,4.09-30.17-7.44-9.43-19.88-9.62-26.78,3.58-5.29,10.12-2.56,20.03-4.91,26.96-2.34,6.93-9.41-1.25-17.76,7.44s14.01,25.54.69,32.05c-13.31,6.51,3.57,22.37,3.57,22.37h.01Z"/>
          <path class="cls-11" d="M28.63,95.52l.32-.04.32.03.31.1.28.16.24.21.19.26.13.29.19.56.19.56.19.56.19.56.18.57.18.57.18.57.18.57.18.57.18.57.17.57.17.57.17.57.17.57.17.57.17.57.17.57.16.57.16.57.16.57.16.57.16.57.16.57.16.58.15.58.15.58.15.58.15.58.15.58.15.58.15.58.15.58.15.58.15.58.14.58.14.58.14.58.14.58.14.58.14.58.14.58.14.58.13.58.13.58.13.58.13.58.13.58.13.58.13.58.13.58.26,1.17.25,1.17.25,1.17.25,1.17.24,1.17.24,1.17.24,1.17.24,1.17.24,1.17.23,1.17.23,1.17.23,1.17.23,1.17.23,1.17.23,1.17.45,2.34.45,2.34.45,2.34.45,2.34.45,2.33.23,1.16.23,1.16.23,1.16.23,1.16.23,1.16.23,1.16.23,1.16.23,1.16.24,1.15.24,1.15.24,1.15.24,1.15.24,1.15.25,1.15.69,3.18.7,3.18.7,3.18.7,3.18.7,3.18.7,3.18,1.41,6.36,1.41,6.36.7,3.18.7,3.18.7,3.18.7,3.18.7,3.18.7,3.19.7,3.19.69,3.19.34,1.59.34,1.59.34,1.59.34,1.59.34,1.59.34,1.59.34,1.6.34,1.59.34,1.6.34,1.6.33,1.6.33,1.6.33,1.6.33,1.6.33,1.6.33,1.6.33,1.6.33,1.6.32,1.6.32,1.6.32,1.6.32,1.6.32,1.6.31,1.6.31,1.6.31,1.6.31,1.6.31,1.6.03.32-.04.32-.11.3-.17.28-.22.24-.26.18-.3.12-.32.05h-.32s-.31-.07-.31-.07l-.29-.14-.26-.19-.21-.24-.16-.28-.09-.31-.31-1.6-.31-1.59-.31-1.6-.31-1.6-.31-1.59-.32-1.59-.32-1.59-.32-1.59-.32-1.59-.32-1.59-.32-1.59-.33-1.59-.33-1.59-.33-1.59-.33-1.59-.33-1.59-.33-1.59-.33-1.59-.34-1.59-.34-1.59-.34-1.59-.34-1.59-.34-1.59-.34-1.59-.34-1.59-.34-1.59-.34-1.59-.34-1.59-.69-3.18-.69-3.18-.7-3.18-.7-3.18-.7-3.18-.7-3.18-.7-3.18-.7-3.18-1.41-6.36-1.41-6.36-.7-3.18-.7-3.18-.7-3.18-.7-3.18-.7-3.18-.69-3.18-.25-1.15-.25-1.15-.24-1.16-.24-1.16-.24-1.16-.24-1.16-.24-1.16-.23-1.16-.23-1.16-.23-1.17-.23-1.16-.23-1.17-.23-1.17-.23-1.17-.45-2.34-.45-2.34-.45-2.34-.45-2.34-.45-2.34-.23-1.17-.23-1.17-.23-1.17-.23-1.17-.23-1.17-.23-1.17-.24-1.17-.24-1.17-.24-1.17-.24-1.17-.24-1.16-.25-1.16-.25-1.16-.25-1.16-.25-1.16-.13-.58-.13-.58-.13-.58-.13-.58-.13-.58-.13-.58-.13-.58-.13-.58-.13-.58-.14-.58-.14-.58-.14-.58-.14-.58-.14-.57-.14-.57-.14-.57-.14-.57-.14-.57-.15-.57-.15-.57-.15-.57-.15-.57-.15-.57-.15-.57-.15-.57-.15-.57-.15-.57-.15-.57-.16-.57-.16-.57-.16-.57-.16-.57-.16-.57-.16-.56-.16-.56-.17-.56-.17-.56-.17-.56-.17-.56-.17-.56-.17-.56-.18-.56-.18-.56-.18-.56-.18-.56-.18-.56-.18-.56-.18-.55-.18-.55-.19-.56-.08-.31v-.32s.06-.32.06-.32l.13-.3.19-.26.24-.22.28-.17.31-.1v-.05Z"/>
          <path class="cls-11" d="M103.55,152.83h.27s.27.04.27.04l.25.09.23.13.21.17.18.2.14.23.1.25.05.26v.27s-.04.27-.04.27l-.09.25-.17.37-.17.37-.33.75-.33.75-.33.75-.32.75-.32.76-.32.76-.32.76-.32.76-.31.76-.31.77-.31.77-.31.77-.31.77-.3.77-.3.78-.3.78-.3.78-.3.78-.3.78-.3.78-.29.79-.29.79-.29.79-.29.79-.29.79-.29.79-.29.79-.29.79-.29.8-.29.8-.28.8-.28.8-.28.8-.57,1.6-.56,1.6-.56,1.6-.56,1.6-.56,1.6-1.12,3.2-.56,1.6-.56,1.6-.56,1.59-.56,1.59-.28.79-.28.79-.28.79-.28.79-.28.79-.28.79-.29.79-.29.79-.79,2.17-.79,2.17-.8,2.17-.8,2.17-1.59,4.33-1.6,4.33-1.6,4.33-1.6,4.33-1.6,4.34-.8,2.17-.8,2.17-.79,2.17-.79,2.17-.79,2.17-.79,2.17-.79,2.17-.79,2.17-.79,2.17-.78,2.17-.78,2.17-.78,2.18-.78,2.18-.77,2.18-.77,2.18-.38,1.09-.38,1.09-.38,1.09-.38,1.09-.38,1.09-.38,1.09-.11.25-.15.22-.19.19-.22.16-.24.12-.26.07-.27.03-.27-.02-.26-.07-.25-.11-.22-.15-.19-.19-.16-.22-.12-.24-.07-.26-.03-.27.02-.27.07-.26.38-1.09.38-1.09.38-1.09.38-1.09.38-1.09.38-1.09.77-2.18.77-2.18.78-2.18.78-2.18.78-2.18.78-2.18.79-2.18.79-2.17.79-2.17.79-2.17.79-2.17.79-2.17.8-2.17.8-2.17.8-2.17,1.6-4.34,1.6-4.33,1.6-4.33,1.6-4.33,1.59-4.33.8-2.17.79-2.17.79-2.16.79-2.17.28-.78.28-.78.28-.78.28-.79.28-.79.28-.79.28-.79.28-.79.56-1.59.56-1.59.56-1.59.56-1.6,1.12-3.2.56-1.6.56-1.6.56-1.6.56-1.6.57-1.6.28-.8.29-.8.29-.8.29-.8.29-.8.29-.8.29-.8.29-.8.29-.8.29-.79.29-.79.3-.79.3-.79.3-.79.3-.79.3-.79.3-.79.3-.79.31-.78.31-.78.31-.78.31-.78.31-.78.32-.78.32-.77.32-.77.32-.77.32-.77.33-.77.33-.76.33-.76.33-.76.33-.76.17-.38.17-.37.13-.24.17-.21.2-.18.23-.14.25-.1.26-.05h.03Z"/>
          <path class="cls-5" d="M38.61,258.89l-.02,33.71c0,11.16,14.96,26.25,14.96,26.25l32.06-.65s13.91-14.85,13.92-25.56l.02-33.71-60.94-.04h0Z"/>
        </g>
        <path class="cls-16" d="M187.78,136.33h0c4.87-1.99,12.59-1.23,15.17,4.19l-.06.04c-3.69-4.33-9.69-5.72-15.1-4.23h0Z"/>
        <path class="cls-16" d="M193.91,141.94c1.69.56,2.61,2.38,2.05,4.07-.56,1.69-2.38,2.61-4.07,2.05-1.69-.56-2.61-2.38-2.05-4.07.56-1.69,2.38-2.61,4.07-2.05Z"/>
        <path class="cls-16" d="M220.35,147.07h0c-1.63-1.44-3.58-3.13-5.78-3.81-2.21-.68-4.48-.87-6.79-.53l-.02-.07c4.5-2.29,9.83.8,12.6,4.42h-.01Z"/>
        <path class="cls-16" d="M213.08,148.64c-1.69-.56-3.51.36-4.07,2.05s.36,3.51,2.05,4.07,3.51-.36,4.07-2.05-.36-3.51-2.05-4.07Z"/>
        <path class="cls-16" d="M204.41,145.7h0c-1.02,5.69-1.1,11.4.22,17.01l.1.44-.34.2c-1.9,1.09-4.18,1.44-6.22.95,2.09-.12,4.03-.79,5.63-1.9l-.24.63c-1.86-5.58-1.7-12,.86-17.32h-.01Z"/>
        <path class="cls-18" d="M204.15,170.45h0c-5.44,7.73-14.94,2.49-13.37-6.25.95,1.4,1.65,2.81,2.49,3.96,2.73,4.19,6.53,3.6,10.88,2.29h0Z"/>
        <path class="cls-18" d="M199.61,172.55h0c.25-.08.44-.24.59-.46s.16-.51.1-.76c-.06-.23-.25-.47-.46-.59-.21-.13-.52-.17-.76-.1-.16.05-.32.09-.49.11l.26-.04c-.28.04-.56.04-.84,0l.26.04c-.13-.01-.25-.04-.37-.07-.26-.07-.53-.02-.76.1s-.38.36-.46.59-.02.54.1.76.35.4.59.46c.73.18,1.51.18,2.23-.04h.01Z"/>
        <path class="cls-18" d="M199.85,172.83h0c.53.11,1.07-.14,1.22-.69.14-.49-.16-1.12-.69-1.22-.9-.18-1.63-.57-2.34-1.14-.45-.36-.9-.66-1.45-.83-.28-.09-.62-.16-.91-.15-.35,0,.39.18.02.02-.06-.03-.11-.05-.17-.07-.47-.16-.98-.24-1.46-.35-.28-.06-.56-.13-.84-.2-.1-.03-.21-.06-.31-.09-.03-.01-.07-.03-.1-.03-.15-.03.21.1.13.05-1.1-.65-2.1,1.06-1,1.71.44.26,1.01.33,1.51.45s1.01.27,1.51.36c.08.02.27.12-.13-.06.21.09.38.15.61.17.17.02.33.02.49.06.42.1.72.38,1.05.64.84.68,1.81,1.16,2.87,1.37h0Z"/>
        <path class="cls-18" d="M200.86,173.09h0c.53.07.99-.51.99-.99,0-.58-.46-.92-.99-.99-.42-.06-.98-.16-1.38-.39-.54-.31-1.09-.56-1.67-.74s-1.16-.36-1.74-.54c-.3-.09-.59-.18-.88-.27-.13-.04-.25-.09-.38-.12-.11-.05-.12-.04-.02,0q-.1-.05,0,0c-.9-.91-2.3.49-1.4,1.4.48.49,1.27.62,1.9.82s1.26.39,1.88.59c.27.08.57.17.77.27.27.12.51.29.77.42.69.34,1.41.44,2.16.54h0Z"/>
        <path class="cls-18" d="M194.34,170.55h0c.39.39,1.01.36,1.4,0s.37-1.03,0-1.4c-.26-.26-.53-.53-.87-.7s-.7-.23-1.05-.37l.24.1c-.09-.04-.18-.09-.26-.15l.2.16c-.15-.11-.27-.25-.38-.39l.16.2c-.07-.09-.13-.18-.2-.27-.16-.23-.27-.33-.49-.49-.16-.12-.33-.22-.49-.34l.2.16s-.14-.13-.14-.13l.16.2-.02-.03c-.16-.22-.34-.38-.59-.46s-.53-.02-.76.1c-.22.11-.4.36-.46.59-.06.21-.05.57.1.76.19.25.35.41.61.59.13.09.26.17.39.27l-.2-.16s.14.13.14.13l-.16-.2c.14.19.28.39.43.57s.33.32.52.46c.35.25.78.3,1.17.45l-.24-.1c.13.06.25.13.36.21l-.2-.16c.16.12.29.25.43.39h0Z"/>
        <path class="cls-18" d="M195.54,172.53h0c.27.04.51.03.76-.1.23-.12.38-.36.46-.59s.02-.55-.1-.76c-.11-.2-.36-.42-.59-.46-.22-.04-.43-.1-.63-.18l.24.1c-.22-.1-.42-.22-.61-.36l.2.16c-.3-.24-.52-.56-.81-.8-.26-.22-.53-.4-.74-.67l.16.2c-.06-.08-.11-.16-.15-.25-.1-.23-.36-.39-.59-.46-.25-.08-.53-.02-.76.1-.22.11-.4.36-.46.59-.08.27-.01.51.1.76.3.65.97.98,1.43,1.5.54.61,1.29,1.07,2.1,1.2v.02Z"/>
      </g>
    </g>
  </g>
</svg>