<?xml version="1.0" encoding="UTF-8"?>
<svg xmlns="http://www.w3.org/2000/svg" version="1.1" xmlns:xlink="http://www.w3.org/1999/xlink" viewBox="0 0 500 500">
  <defs>
    <style>
      .cls-1, .cls-2 {
        fill: #eaceb9;
      }

      .cls-3 {
        fill: #755b41;
      }

      .cls-4 {
        fill: #edceb4;
      }

      .cls-5 {
        fill: #fff;
      }

      .cls-6 {
        opacity: .53;
      }

      .cls-7 {
        fill: none;
      }

      .cls-8, .cls-9, .cls-10, .cls-2, .cls-11, .cls-12, .cls-13, .cls-14 {
        fill-rule: evenodd;
      }

      .cls-8, .cls-15 {
        fill: #839183;
      }

      .cls-9 {
        fill: #29415e;
      }

      .cls-16 {
        fill: #669166;
      }

      .cls-10 {
        fill: #465d7f;
      }

      .cls-17 {
        fill: #444;
      }

      .cls-18 {
        fill: #d3b098;
      }

      .cls-19 {
        fill: #a34a48;
      }

      .cls-20 {
        fill: #6f87ad;
      }

      .cls-11 {
        fill: #728772;
      }

      .cls-21 {
        fill: #33353b;
        opacity: .52;
      }

      .cls-12 {
        fill: #547256;
      }

      .cls-13 {
        fill: #dab6e4;
      }

      .cls-14 {
        fill: #4f5950;
      }

      .cls-22 {
        clip-path: url(#clippath);
      }
    </style>
    <clipPath id="clippath">
      <path class="cls-7" d="M212.71,233.25c4.21,29.46,7.67,48.93,28.81,48.3,21.14-.63,48.05-24.94,47.75-50.57-.3-25.62-17.68-45.89-38.82-45.27-21.14.63-38.04,21.91-37.74,47.53"/>
    </clipPath>
  </defs>
  <!-- Generator: Adobe Illustrator 28.7.1, SVG Export Plug-In . SVG Version: 1.2.0 Build 142)  -->
  <g>
    <g id="OBJECTS">
      <g class="cls-6">
        <circle class="cls-16" cx="254.62" cy="254.65" r="167.49" transform="translate(-105.49 254.63) rotate(-45)"/>
      </g>
      <path class="cls-13" d="M187.73,384.14s-10.8,1.35-20.63-.35c-3.02-.52-1.39,2.2-1.03,2.44,1.91,1.23,8.73,2.9,8.34,3.31-.82.86-13.75,2.11-18.3,2.02-.46,0-5.4-.28-5.39.41.02,1.61,2.63,2,3.84,2.17,4.11.56,16.74.38,16.11.47-1.13.16-10.72,1.97-14.42,2.51-.24.04-5.47.78-5.36,1.45.22,1.36,4.3,1.26,5.24,1.18,3.71-.32,13.79-1.06,15.07-1.14.53-.04-3.5,1.21-4.63,1.55-3.5,1.03-7.21,1.51-10.66,2.65-.68.22-3.06.79-2.75,1.94.2.75,2.15.79,2.69.79,3.31-.03,25.08-4.61,30.59-7.81,2.12-1.23,6.36-1.38,6.36-1.38,0,0,.66-10.13-5.08-12.2"/>
      <g>
        <path class="cls-12" d="M178.06,231.33c0-10.04-8.15-18.2-18.2-18.2h-45.69c-10.04,0-18.2,8.15-18.2,18.2v19.21c0,10.04,8.15,18.2,18.2,18.2h15.32l10.84,16.03s2.76,4.11,5.52,3.69c3.18-.49,2.68-5.88,2.68-5.88l.7-13.83h10.63c10.04,0,18.2-8.15,18.2-18.2v-19.21Z"/>
        <path class="cls-21" d="M150.05,231.48c.25.36.4.79.4,1.26v2.51l-.06.02c-.02.26,0,.56,0,.56l1.58-.49.41.87c-.15.19-.37.42-.66.68-.29.26-.6.52-.93.79-.11.09-.22.17-.33.25-.02.91-.07,1.31,0,1.64v10.99c0,.42-.12.81-.32,1.14-.16.11-.32.2-.51.29-.01.44-.44.76-1.17.82-.45.03-.88.02-1.36.02h-23.25c-.87,0-1.87-.33-2.6-.81l28.33,16.69,9.63.03c9.89-.27,18-6.78,18.52-14.68l.18-1.67s-27.83-20.93-27.84-20.9Z"/>
        <path class="cls-5" d="M126.01,235.23l3.26,3.36-2.68,1.27h-.04s-.33-3.58-.33-3.58l-.21-1.05ZM125.69,239.85l-.42-4.52-.49-2.44.05-.02,1.48,1.91,3.19,3.28s.02-.05.03-.07c.27-.53.92-.83,1.81-.83l2.64.02-9.19-8.68-1.84.87.65,10.46h2.08ZM129.74,239.43c-.1-.13-.16-.26-.21-.38l-1.71.81h2.24s-.32-.43-.32-.43ZM137.49,237.21s.04,0,.06,0c.13-.54.4-1.07.79-1.58.21-.27.47-.54.76-.81-.2-.13-.42-.27-.64-.45l-.04.02c-.07.03-.15.05-.23.05-.1,0-.19-.03-.27-.08-.25-.15-.5-.33-.77-.54-.26-.21-.52-.44-.77-.69-.26-.25-.5-.52-.73-.8-.23-.28-.44-.56-.61-.85-.11-.17-.11-.38,0-.55.08-.13.17-.26.26-.39h-2.03c-1.21,0-2.19.98-2.19,2.19v.97l3.7,3.49,2.72.02ZM149.71,233.92c.17.36.32.67.45.92.07.14.15.28.23.42l.06-.02v-2.51c0-1.21-.98-2.19-2.19-2.19h-.04c.13.31.26.61.38.9.33.81.7,1.64,1.1,2.47ZM149,240.36c-.2-.17-.37-.36-.53-.56l-.19.09c-.07.03-.15.05-.23.05-.13,0-.25-.04-.35-.13-.15-.13-.28-.27-.41-.41-.06.34-.16.67-.33.99-.19.39-.46.75-.8,1.09-.34.35-.77.64-1.28.88-.32.15-.64.27-.96.35l5.92,8.31c.17.24.26.46.3.66.2-.34.32-.72.32-1.14v-10.99c-.22.15-.43.29-.62.4l-.84.4ZM122.73,234.22c-.69.41-1.16,1.17-1.16,2.03v3.57h1.51s-.35-5.61-.35-5.61ZM143.42,231.96c-.22-.55-.43-1.02-.65-1.42h-2.5c-.09.08-.19.17-.27.26l.22,3.12c.09-.06.17-.13.26-.19.8-.54,1.78-1.14,2.94-1.77ZM152.39,236.2c-.15.19-.37.42-.66.68-.29.26-.6.52-.93.79-.33.27-.66.52-1,.75-.34.23-.64.43-.9.6l-.84.4c-.35-.3-.63-.63-.84-1-.21-.36-.46-.82-.73-1.35l-.12.06c.07.37.08.75.03,1.15-.05.4-.18.79-.37,1.18-.19.39-.46.75-.8,1.09-.34.35-.77.64-1.28.88-.25.12-.49.21-.74.28l-2.02-2.84c-.57-.79-1.84-1.44-3.08-1.62.12-.44.34-.87.67-1.3.46-.59,1.13-1.19,2.01-1.79.88-.6,1.98-1.26,3.31-1.96-.54-1.48-1.09-2.5-1.66-3.04-.56-.54-1.26-.62-2.08-.23-.51.24-.94.55-1.3.92l.25,3.53-1.09.52h0c-.23-.14-.46-.3-.71-.5-.25-.2-.49-.42-.74-.65-.24-.24-.48-.49-.69-.75-.22-.26-.41-.53-.57-.79.42-.73,1.07-1.45,1.95-2.17.87-.72,1.87-1.34,2.97-1.87.94-.45,1.76-.71,2.45-.78.69-.08,1.29-.02,1.8.18.51.19.94.5,1.3.92.36.42.67.9.93,1.44.47.99.88,1.9,1.22,2.72.34.82.71,1.65,1.11,2.5.17.36.33.68.46.94.13.26.29.53.46.81l1.83-.56.41.87ZM145.88,236.53c-.01-.26-.03-.48-.06-.67l-1.18-2.48c-.77.39-1.38.74-1.84,1.06-.46.32-.78.64-.97.96-.19.32-.27.66-.24,1,.03.34.14.72.34,1.13.3.63.68,1.05,1.14,1.25.46.21.96.18,1.49-.07.35-.16.61-.37.8-.62.18-.25.32-.51.41-.77.09-.26.13-.53.11-.78ZM144.72,234.78c-.37.21-.7.41-.97.59-.46.32-.78.64-.97.96-.19.32-.27.66-.24,1,0,.08.02.16.04.25.21.34.45.58.71.7.14.06.28.09.43.09.19,0,.4-.05.61-.15.27-.13.47-.28.6-.46.15-.2.26-.41.33-.62.07-.2.1-.4.09-.59,0-.2-.02-.39-.04-.54l-.58-1.23ZM142.46,241.61l-.8-1.13-.92-1.29c-.56-.79-2.02-1.43-3.25-1.44l-6.12-.04c-1.23,0-1.77.63-1.2,1.42l.94,1.3-16.43-.09c-1.33,0-1.89.69-1.25,1.55l7.02,9.45c.62.83,2.14,1.5,3.39,1.5h24.34c1.26,0,1.8-.66,1.22-1.48l-6.94-9.74Z"/>
      </g>
      <path class="cls-12" d="M202.78,123.12c0-10.04-4.35-18.2-14.39-18.2h-45.69c-10.04,0-14.28,8.15-14.28,18.2v19.21c0,10.04,4.24,18.2,14.28,18.2h15.32l10.84,16.03s2.76,4.11,5.52,3.69c3.18-.49,2.68-5.88,2.68-5.88l.7-13.83h10.63c10.04,0,14.39-8.15,14.39-18.2v-19.21Z"/>
      <g>
        <path class="cls-12" d="M289.68,142.46c0-10.04,4.35-18.2,14.39-18.2h45.69c10.04,0,14.28,8.15,14.28,18.2v19.21c0,10.04-4.24,18.2-14.28,18.2h-15.32l-10.84,16.03s-2.76,4.11-5.52,3.69c-3.18-.49-2.68-5.88-2.68-5.88l-.7-13.83h-10.63c-10.04,0-14.39-8.15-14.39-18.2v-19.21Z"/>
        <path class="cls-21" d="M339.55,131.92c.05.06.1.12.14.18l2.18,3.66.92,1.3c.12.11,1.57,1.05,1.65,1.19.77-.08,1.53.39,1.77,1.16l2.73,8.48s.09.6.26,1.5c.43.3.7.8.7,1.36v.14l1.09,3.39c.28.89-.2,1.83-1.09,2.12h0v9.98c0,.93-.75,1.68-1.68,1.68h-37.83c-.16,0-.31-.03-.46-.07-.05.04-.75-.54-.8-.5l25.3,12.37,18.33-.82c5.33,0,10.5-8.17,10.3-13.4l.98-13.98s-24.48-19.75-24.5-19.74Z"/>
        <path class="cls-5" d="M351.79,153.92l-1.09-3.39v-.14c0-.93-.75-1.68-1.68-1.68h-37.57l4.96-.15,1.15-.37.11.33,1.26-.04-.21-.66,8.13-2.61.97,3,1.26-.04-1.07-3.34,8.13-2.61,1.83,5.68,1.26-.04-1.93-6.01,8.13-2.61,2.69,8.35,1.63-.05-2.73-8.48c-.18-.77-.77-1.29-1.43-1.28-.14,0-.51.09-.72.16-.68.23-33.41,10.78-33.41,10.78h0l3.93-1.26h0s-3.68,1.08-3.68,1.08l3.54-1.31v-.02s7.23-4.53,7.23-4.53l.95,1.52,1.16-.43-1.08-1.73,7.24-4.53,2.02,3.23,1.16-.43-2.16-3.44,7.24-4.53,3.1,4.94,1.5-.56-.82-1.31-2.29-3.65c-.49-.79-1.53-1.03-2.32-.53l-23.74,14.87.12-.13-4.6,2.76,5.66-3.85,3.23-3.33.68.66,1.02-.7-.86-.84,5.95-6.13,2.12,2.05,1.02-.7-2.29-2.23,5.95-6.13,3.55,3.45,1.32-.9h0s-3.56-3.45-3.56-3.45c-.67-.65-1.73-.63-2.38.04l-21.82,22.48-.63.4,1.15-.37h0l-1.17.38c-.28.09-.51.25-.7.44l-2.08,1.3c-.71.44-.97,1.32-.66,2.07l-.44.45c-.65.67-.63,1.73.04,2.38l4.47,4.33v5.5c0,.93.75,1.68,1.68,1.68h37.83c.93,0,1.68-.75,1.68-1.68v-9.98h0c.89-.29,1.37-1.23,1.09-2.12ZM307.78,151.66l1.35,4.2-2.19-3.49.89-.55-.05-.16ZM309.5,159.9l-3.09-4.94-.32-.31.08-.08-.61-.97,3.94,6.29h0ZM313.56,160.43c-1.23,0-2.22-1-2.22-2.22s1-2.22,2.22-2.22,2.22,1,2.22,2.22-1,2.22-2.22,2.22Z"/>
      </g>
      <g>
        <path class="cls-10" d="M253.27,284.36s-12.34,3.8-14.03,20.09c-4.91,47.42-3.13,69.97-8.45,79.38-1.12,1.98-51.84-5.25-52.38-3.84-1.5,3.94-11.34,20.21-9.5,20.74,5.78,1.66,73.42,20.29,87.87,6.62,13.31-12.59,11.47-37.69,8.45-50.88-3.84-16.77,7.25-71.11-11.96-72.11Z"/>
        <path class="cls-20" d="M347.82,409.96c-12.87-42.74-50.95-135.52-50.95-135.52l-20.78-2.76c-2.61-2.01-28.77,18.48-28.77,18.48,0,0-2.22,12.44-4.33,24.83-1.94,11.34-12.97,23.11-11.93,29.15,2.41,13.99,19.63,17.36,19.63,17.36,3.05,24.62,5.42,39.34,8.74,51.96"/>
        <path class="cls-10" d="M294.48,274.65s-6.41,14.2-3.24,34.86c1.35,8.8,11.68,44.5,14.13,53.1,5.29,18.61-3.45,18.99-21.94,19.11-2.61.02-21.76-1.98-22.14-.36-1.08,4.55-4.96,26.05,2.15,27.62,8.69,1.92,53.99,7.51,67.1-9.4,12.07-15.56,7.37-43.16,2.82-57.41-5.78-18.11-19.28-68.75-38.87-67.53"/>
        <path class="cls-9" d="M261.63,380.61c2.63-.03,5.17,6.28,5.67,14.1.5,7.82-1.22,14.19-3.85,14.22-2.63.04-5.17-6.28-5.67-14.1-.5-7.82,1.22-14.19,3.85-14.22"/>
        <path class="cls-2" d="M266.44,392.61s-10.46-2.45-18.79-7.4c-2.55-1.52-2.18,1.57-1.94,1.91,1.25,1.79,6.83,5.69,6.3,5.94-1.1.51-13.48-2.76-17.62-4.41-.42-.17-4.84-2.11-5.11-1.47-.64,1.5,1.59,2.76,2.64,3.33,3.54,1.93,15.21,6.09,14.59,5.96-1.1-.24-10.65-1.85-14.26-2.62-.24-.05-5.34-1.15-5.52-.49-.36,1.34,3.43,2.64,4.33,2.89,3.53.97,13.1,3.75,14.3,4.11.5.15-3.71-.08-4.88-.15-3.63-.24-7.24-1.08-10.87-1.2-.71-.02-3.13-.32-3.32.86-.13.77,1.65,1.48,2.14,1.65,3.05,1.11,24.91,4.33,31.28,3.26,2.45-.41,6.4.9,6.4.9,0,0,4.76-9.17.34-13.06"/>
        <path class="cls-3" d="M237.86,182.14s-15.8-3-23.33,6.86-5.81,23.14-17.38,27.86-15.48,27.19-4.31,33.95-2.36,19.19-2.36,19.19c0,0-10.09,9.86,2.36,22.29,0,0,9.08,5.67,21.69,9.26,0,0-9.07-8.85-6.37-19.98,0,0,.97,18.53,18.12,19.98s28.34-10.55,28.34-10.55l50.12-12.2s29.19-7.6,29.22-27.84-19.62-17.81-23.37-32.39-4.67-28.89-20.92-33.52-35.97-21.77-51.82-2.91Z"/>
        <path class="cls-4" d="M275.89,272.63l-1.44-38.68c-3.89-8.26-26.63-8.7-34.23-4.65-7.03,3.75-10.67,12.67-8.56,21.02l18.79,48.09c2.74,9.76,14.72,7.08,19.29.89,11.75-15.93,6.79-25.64,6.16-26.67Z"/>
        <path class="cls-4" d="M220.9,253.06l-3.54-15.49s-6.86-3.17-8.88,4.29c-2.02,7.47,5.91,13.4,12.42,11.2"/>
        <path class="cls-1" d="M212.71,233.25c4.21,29.46,7.67,48.93,28.81,48.3,21.14-.63,48.05-24.94,47.75-50.57-.3-25.62-17.68-45.89-38.82-45.27-21.14.63-38.04,21.91-37.74,47.53"/>
        <path class="cls-10" d="M260.08,348.34s15.79,13.07,36.43,6.68c0,0-21.49,18.08-36.43-6.68Z"/>
        <ellipse class="cls-18" cx="258.25" cy="250.53" rx="10.45" ry="8.63" transform="translate(-83.86 139.1) rotate(-26.09)"/>
        <g class="cls-22">
          <ellipse class="cls-18" cx="217.9" cy="253.16" rx="8.63" ry="10.45" transform="translate(-110.3 315.29) rotate(-60)"/>
        </g>
        <path class="cls-3" d="M218.04,208.88s4.94-8.83,13.02,0,4.32,22.92,23.56,25.31,7.18,20.75,20.58,20l1.45,31.44s35.16-49.19,16.92-77.78c-18.25-28.59-62.78-37.38-75.53,1.03Z"/>
        <path class="cls-4" d="M269.97,255.26l6.55-15.84s8.89-3.37,10.32,4.19c1.42,7.56-9.17,13.76-16.87,11.65"/>
      </g>
      <g>
        <rect class="cls-15" x="165.19" y="400.75" width="98.72" height="9.65"/>
        <path class="cls-8" d="M211.52,408.5l-11.47-106.95-117.64,8.2,18.26,98.76h110.84Z"/>
        <path class="cls-12" d="M204.09,410.13l-10.91-108.48-117.14,8.4,17.71,100.17,110.34-.08Z"/>
        <path class="cls-8" d="M136.99,344.88c5.7-2.46,12.36,1.48,14.88,8.8s-.05,15.25-5.75,17.71c-5.7,2.46-12.36-1.48-14.88-8.8-2.52-7.32.05-15.25,5.75-17.71Z"/>
      </g>
      <g>
        <path class="cls-11" d="M383.16,298.01s-24.12-11.61-8.58-26.05c15.55-14.44-15.64-24.67-6.74-39.44,8.91-14.77,19.28-7.99,20.96-17.7,1.68-9.72-10.75-17.15-2.73-31.33,8.02-14.18,17.37-20.33,28.97-18.52,11.6,1.81-3.51,30.5,8.38,36.22,11.89,5.72,10.27,24.06-7.9,40.02-18.17,15.95,10.96,26.12-6.13,37.13-17.1,11-26.24,19.68-26.24,19.68Z"/>
        <path class="cls-11" d="M359.71,336.34s19.07-13.15,6.87-21.58c-12.19-8.43,12.44-21.75,5.48-31.59-6.96-9.84-15.17-2.81-16.45-10.01-1.28-7.2,2.9-16.59-.82-27.39-4.85-14.09-17.17-15.77-25.94-7.55-7.12,6.68,8.93,23.97-.47,30.44-9.4,6.48-8.2,20.35,6.05,29.49,14.26,9.15-8.75,22.05,4.68,27.57,13.43,5.52,20.6,10.62,20.6,10.62Z"/>
        <path class="cls-12" d="M407.3,185.09l.31.1.28.17.24.22.19.26.13.3.06.32v.32s-.08.31-.08.31l-.19.56-.18.55-.18.55-.18.56-.18.56-.18.56-.18.56-.18.56-.18.56-.17.56-.17.56-.17.56-.17.56-.17.56-.17.56-.16.56-.16.56-.16.57-.16.57-.16.57-.16.57-.16.57-.15.57-.15.57-.15.57-.15.57-.15.57-.15.57-.15.57-.15.57-.15.57-.15.57-.14.57-.14.57-.14.57-.14.57-.14.57-.14.58-.14.58-.14.58-.14.58-.13.58-.13.58-.13.58-.13.58-.13.58-.13.58-.13.58-.13.58-.13.58-.25,1.16-.25,1.16-.25,1.16-.25,1.16-.24,1.16-.24,1.17-.24,1.17-.24,1.17-.24,1.17-.23,1.17-.23,1.17-.23,1.17-.23,1.17-.23,1.17-.23,1.17-.45,2.34-.45,2.34-.45,2.34-.45,2.34-.45,2.34-.23,1.17-.23,1.17-.23,1.17-.23,1.16-.23,1.17-.23,1.16-.23,1.16-.24,1.16-.24,1.16-.24,1.16-.24,1.16-.24,1.16-.25,1.15-.25,1.15-.69,3.18-.7,3.18-.7,3.18-.7,3.18-.7,3.18-.7,3.18-1.41,6.36-1.41,6.36-.7,3.18-.7,3.18-.7,3.18-.7,3.18-.7,3.18-.7,3.18-.69,3.18-.69,3.18-.34,1.59-.34,1.59-.34,1.59-.34,1.59-.34,1.59-.34,1.59-.34,1.59-.34,1.59-.34,1.59-.34,1.59-.33,1.59-.33,1.59-.33,1.59-.33,1.59-.33,1.59-.33,1.59-.33,1.59-.32,1.59-.32,1.59-.32,1.59-.32,1.59-.32,1.59-.32,1.59-.31,1.59-.31,1.6-.31,1.6-.31,1.59-.31,1.6-.09.31-.16.28-.21.24-.26.19-.29.14-.31.07h-.32s-.32-.05-.32-.05l-.3-.12-.26-.18-.22-.24-.17-.28-.11-.3-.04-.32.03-.32.31-1.6.31-1.6.31-1.6.31-1.6.31-1.6.32-1.6.32-1.6.32-1.6.32-1.6.32-1.6.33-1.6.33-1.6.33-1.6.33-1.6.33-1.6.33-1.6.33-1.6.33-1.6.34-1.6.34-1.6.34-1.59.34-1.6.34-1.59.34-1.59.34-1.59.34-1.59.34-1.59.34-1.59.69-3.19.7-3.19.7-3.19.7-3.18.7-3.18.7-3.18.7-3.18.7-3.18,1.41-6.36,1.41-6.36.7-3.18.7-3.18.7-3.18.7-3.18.7-3.18.69-3.18.25-1.15.24-1.15.24-1.15.24-1.15.24-1.15.24-1.15.23-1.16.23-1.16.23-1.16.23-1.16.23-1.16.23-1.16.23-1.16.23-1.16.45-2.33.45-2.34.45-2.34.45-2.34.45-2.34.23-1.17.23-1.17.23-1.17.23-1.17.23-1.17.23-1.17.24-1.17.24-1.17.24-1.17.24-1.17.24-1.17.25-1.17.25-1.17.25-1.17.26-1.17.13-.58.13-.58.13-.58.13-.58.13-.58.13-.58.13-.58.13-.58.14-.58.14-.58.14-.58.14-.58.14-.58.14-.58.14-.58.14-.58.15-.58.15-.58.15-.58.15-.58.15-.58.15-.58.15-.58.15-.58.15-.58.15-.58.16-.58.16-.57.16-.57.16-.57.16-.57.16-.57.16-.57.17-.57.17-.57.17-.57.17-.57.17-.57.17-.57.17-.57.18-.57.18-.57.18-.57.18-.57.18-.57.18-.57.19-.56.19-.56.19-.56.19-.56.13-.29.19-.26.24-.21.28-.16.31-.1.32-.03.32.04Z"/>
        <path class="cls-12" d="M342.12,248.31l.25.09.23.13.21.17.17.2.14.23.09.25.11.4.11.4.22.8.22.8.21.8.21.8.21.81.21.81.2.81.2.81.2.81.2.81.19.82.19.82.19.82.19.82.19.82.18.82.18.82.18.82.18.83.18.83.18.83.17.83.17.83.17.83.17.83.17.83.17.83.17.83.17.83.16.83.16.83.16.83.16.83.32,1.67.32,1.67.32,1.67.32,1.67.31,1.67.63,3.33.31,1.66.31,1.66.32,1.66.32,1.65.16.82.16.82.16.82.16.82.16.82.16.82.16.82.17.82.46,2.26.46,2.26.46,2.26.46,2.26.93,4.52.93,4.52.93,4.52.93,4.52.93,4.53.46,2.26.46,2.26.46,2.26.46,2.27.46,2.27.46,2.27.46,2.27.45,2.27.45,2.27.45,2.27.45,2.27.45,2.27.44,2.27.44,2.27.44,2.27.22,1.14.22,1.14.22,1.14.22,1.14.21,1.14.21,1.14.03.27-.02.27-.07.26-.11.24-.15.22-.19.19-.22.16-.24.12-.26.07-.27.03-.27-.02-.26-.07-.25-.11-.22-.15-.19-.19-.16-.22-.12-.24-.07-.26-.21-1.14-.21-1.14-.22-1.13-.22-1.14-.22-1.14-.22-1.13-.44-2.27-.44-2.27-.44-2.27-.45-2.27-.45-2.27-.45-2.27-.45-2.27-.45-2.27-.46-2.26-.46-2.26-.46-2.26-.46-2.26-.46-2.26-.46-2.26-.46-2.26-.93-4.52-.93-4.52-.93-4.52-.93-4.52-.93-4.52-.46-2.26-.46-2.26-.46-2.26-.46-2.26-.17-.82-.17-.82-.16-.82-.16-.82-.16-.82-.16-.83-.16-.83-.16-.83-.32-1.66-.32-1.66-.32-1.66-.31-1.66-.63-3.33-.31-1.67-.32-1.67-.32-1.67-.32-1.66-.32-1.66-.16-.83-.16-.83-.16-.83-.16-.83-.16-.83-.17-.83-.17-.83-.17-.83-.17-.82-.17-.82-.17-.82-.17-.82-.17-.82-.18-.82-.18-.82-.18-.82-.18-.82-.18-.81-.18-.81-.19-.81-.19-.81-.19-.81-.19-.81-.19-.81-.2-.8-.2-.8-.2-.8-.2-.8-.2-.8-.21-.79-.21-.79-.21-.79-.22-.79-.11-.39-.11-.39-.05-.26v-.27s.04-.26.04-.26l.09-.25.13-.23.17-.21.2-.17.23-.14.25-.09.26-.05h.27s.27.04.27.04Z"/>
        <path class="cls-14" d="M391.84,350.52h-60.94v33.71c0,10.71,13.9,25.57,13.9,25.57l32.06.67s14.98-15.08,14.98-26.24v-33.71Z"/>
      </g>
      <path class="cls-17" d="M246.85,231.24c-5.41-1.49-11.41-.11-15.1,4.22,0,0-.06-.04-.06-.04,2.58-5.42,10.3-6.17,15.17-4.18h0Z"/>
      <path class="cls-17" d="M244.79,238.9c.56,1.69-.36,3.51-2.05,4.07-1.69.56-3.51-.36-4.07-2.05-.56-1.69.36-3.51,2.05-4.07,1.69-.56,3.51.36,4.07,2.05Z"/>
      <path class="cls-17" d="M214.27,241.96c2.77-3.62,8.1-6.7,12.6-4.41,0,0-.02.07-.02.07-2.31-.34-4.58-.15-6.79.53-2.2.68-4.15,2.37-5.78,3.81h0Z"/>
      <path class="cls-17" d="M219.5,247.6c.56,1.69,2.38,2.61,4.07,2.05,1.69-.56,2.61-2.38,2.05-4.07-.56-1.69-2.38-2.61-4.07-2.05-1.69.56-2.61,2.38-2.05,4.07Z"/>
      <path class="cls-17" d="M230.21,240.61c2.56,5.32,2.71,11.74.85,17.32,0,0-.24-.63-.24-.63,1.6,1.11,3.54,1.78,5.63,1.9-2.04.49-4.32.14-6.22-.95l-.34-.2s.1-.44.1-.44c1.32-5.61,1.25-11.32.23-17.01h0Z"/>
      <path class="cls-19" d="M230.46,265.35c4.35,1.32,8.15,1.91,10.88-2.28.84-1.15,1.54-2.56,2.49-3.96,1.57,8.74-7.94,13.97-13.37,6.24h0Z"/>
      <path class="cls-19" d="M235.01,267.45c.72.22,1.5.22,2.23.04.24-.06.47-.24.59-.46s.18-.53.1-.76-.23-.47-.46-.59-.5-.17-.76-.1c-.12.03-.24.06-.37.07l.26-.04c-.28.04-.56.04-.84,0l.26.04c-.17-.02-.33-.06-.49-.11-.24-.07-.55-.03-.76.1-.21.12-.4.36-.46.59-.06.25-.05.54.1.76s.34.38.59.46h0Z"/>
      <path class="cls-19" d="M234.75,267.73c1.06-.21,2.03-.69,2.87-1.37.33-.26.63-.54,1.05-.64.16-.04.32-.04.49-.06.23-.02.4-.08.61-.17-.4.18-.21.08-.13.06.5-.09,1.01-.24,1.51-.36s1.07-.19,1.51-.45c1.1-.65.1-2.36-1-1.71-.08.05.28-.08.13-.05-.03,0-.07.02-.1.03-.1.03-.21.06-.31.09-.28.07-.56.14-.84.2-.48.11-.99.19-1.46.35-.06.02-.11.04-.17.07-.37.16.37-.01.02-.02-.29-.01-.63.06-.91.15-.55.17-1,.47-1.45.83-.71.57-1.44.96-2.34,1.14-.53.1-.83.73-.69,1.22.15.55.69.8,1.22.69h0Z"/>
      <path class="cls-19" d="M233.75,267.99c.75-.1,1.47-.2,2.16-.54.26-.13.5-.3.77-.42.2-.1.5-.19.77-.27.62-.2,1.25-.39,1.88-.59s1.42-.33,1.9-.82c.9-.91-.5-2.31-1.4-1.4.09-.05.09-.05-.01,0,.1-.04.09-.05-.02,0-.13.03-.25.08-.38.12-.29.09-.58.18-.88.27-.58.18-1.16.36-1.74.54s-1.13.43-1.67.74c-.4.23-.96.33-1.38.39-.53.07-.99.41-.99.99,0,.48.46,1.06.99.99h0Z"/>
      <path class="cls-19" d="M240.27,265.44c.14-.14.27-.27.43-.39l-.2.16c.11-.08.23-.15.36-.21l-.24.1c.39-.15.82-.2,1.17-.45.19-.14.37-.28.52-.46s.29-.38.43-.57l-.16.2s.09-.09.14-.13l-.2.16c.13-.1.26-.18.39-.27.26-.18.42-.34.61-.59.15-.19.16-.55.1-.76-.06-.23-.24-.48-.46-.59-.23-.12-.51-.18-.76-.1s-.43.24-.59.46l-.02.03.16-.2s-.09.09-.14.13l.2-.16c-.16.12-.33.22-.49.34-.22.16-.33.26-.49.49-.07.09-.13.18-.2.27l.16-.2c-.11.14-.23.28-.38.39l.2-.16c-.08.06-.17.11-.26.15l.24-.1c-.35.14-.71.2-1.05.37s-.61.44-.87.7c-.37.37-.39,1.04,0,1.4s1.01.39,1.4,0h0Z"/>
      <path class="cls-19" d="M239.06,267.41c.81-.13,1.56-.59,2.1-1.2.46-.52,1.13-.85,1.43-1.5.11-.25.18-.49.1-.76-.06-.23-.24-.48-.46-.59-.23-.12-.51-.18-.76-.1-.23.07-.49.23-.59.46-.04.09-.09.17-.15.25l.16-.2c-.21.27-.48.45-.74.67-.29.24-.51.56-.81.8l.2-.16c-.19.14-.39.26-.61.36l.24-.1c-.2.08-.41.14-.63.18-.23.04-.48.26-.59.46-.12.21-.18.53-.1.76s.23.47.46.59c.25.13.49.14.76.1h0Z"/>
      <path class="cls-21" d="M181.61,118.89s.03.06,0,.1v2.24h-.79v.56h.02v9.84h0v.56h.78v2.34h-.79v.56h.02v9.83h-.02v.56h.79v2.34h-2.34v-.73h-.56s-10.5,0-10.5,0v-.02h-.56v.73h-2.34v-.73h-.56v.02h-10.54s-.56,0-.56,0v.73h-2.33c.54.55,26.43,12.71,26.43,12.71l13.47-.25c5.55-.26,10.02-5.11,11.4-14.8l.15-11.68-21.17-14.9Z"/>
      <path class="cls-5" d="M179.02,132.1l-5.36,5.19,1.29,7.35c.18,1.05-.92,1.85-1.86,1.35l-6.6-3.5-6.6,3.5c-.94.5-2.05-.3-1.86-1.35l1.29-7.35-5.36-5.19c-.77-.74-.34-2.04.71-2.19l7.39-1.05,3.28-6.71c.47-.96,1.83-.96,2.3,0l3.28,6.71,7.39,1.05c1.06.15,1.48,1.45.71,2.19ZM178.71,119.62h-10.5v.84h10.5v-.84ZM152.12,135.09v9.83h.85v-9.83h-.85ZM179.99,121.79v9.84h.85v-9.84h-.85ZM164.75,119.62h-10.54v.84h10.54v-.84ZM179.99,135.09v9.83h.85v-9.83h-.85ZM168.21,147.1h10.5v-.84h-10.5v.84ZM154.21,147.1h10.54v-.84h-10.54v.84ZM152.97,131.63v-9.84h-.85v9.84h.85ZM167.65,118.89h-2.34v2.34h2.34v-2.34ZM179.27,134.53h2.34v-2.34h-2.34v2.34ZM179.27,118.89v2.34h2.34v-2.34h-2.34ZM153.66,118.89h-2.34v2.34h2.34v-2.34ZM179.27,147.82h2.34v-2.34h-2.34v2.34ZM165.31,147.82h2.34v-2.34h-2.34v2.34ZM151.31,147.82h2.34v-2.34h-2.34v2.34ZM151.31,134.53h2.34v-2.34h-2.34v2.34Z"/>
    </g>
  </g>
</svg>