<?xml version="1.0" encoding="UTF-8"?>
<svg xmlns="http://www.w3.org/2000/svg" version="1.1" xmlns:xlink="http://www.w3.org/1999/xlink" viewBox="0 0 1690 1003">
  <defs>
    <style>
      .cls-1 {
        fill: #010101;
      }

      .cls-2 {
        fill: url(#linear-gradient-2);
      }

      .cls-3 {
        fill: #fff;
        stroke: #000;
        stroke-miterlimit: 10;
      }

      .cls-4 {
        fill: url(#linear-gradient-4);
      }

      .cls-5 {
        fill: url(#radial-gradient);
      }

      .cls-5, .cls-6 {
        isolation: isolate;
        opacity: .6;
      }

      .cls-7 {
        fill: url(#linear-gradient-3);
      }

      .cls-8 {
        fill: url(#linear-gradient-5);
      }

      .cls-9 {
        fill: #efeff0;
      }

      .cls-10 {
        fill: url(#linear-gradient-6);
      }

      .cls-6 {
        fill: #3c3c3a;
      }

      .cls-11 {
        fill: url(#linear-gradient);
      }
    </style>
    <linearGradient id="linear-gradient" x1="844.6" y1="92.1" x2="844.6" y2="54.5" gradientTransform="translate(0 1004) scale(1 -1)" gradientUnits="userSpaceOnUse">
      <stop offset="0" stop-color="#272727"/>
      <stop offset=".3" stop-color="#202020"/>
      <stop offset=".5" stop-color="#1e1e1e"/>
      <stop offset="1" stop-color="#0b0b0d"/>
    </linearGradient>
    <linearGradient id="linear-gradient-2" x1="-.4" y1="23.8" x2="1690" y2="23.8" gradientTransform="translate(0 1004) scale(1 -1)" gradientUnits="userSpaceOnUse">
      <stop offset="0" stop-color="#aaaaae"/>
      <stop offset="0" stop-color="#a7a7ac"/>
      <stop offset="0" stop-color="#ababb0"/>
      <stop offset="0" stop-color="#bfc0c5"/>
      <stop offset="0" stop-color="#cbccd1"/>
      <stop offset="0" stop-color="#d0d1d6"/>
      <stop offset="0" stop-color="#c7c8cd"/>
      <stop offset="0" stop-color="#a6a7ac"/>
      <stop offset="0" stop-color="#8c8d92"/>
      <stop offset="0" stop-color="#7a7b80"/>
      <stop offset="0" stop-color="#6f7075"/>
      <stop offset="0" stop-color="#6c6d72"/>
      <stop offset="0" stop-color="#68696e"/>
      <stop offset="0" stop-color="#63646a"/>
      <stop offset=".1" stop-color="#95969b"/>
      <stop offset=".2" stop-color="#a4a4a9"/>
      <stop offset=".2" stop-color="#a7a7ac"/>
      <stop offset=".2" stop-color="#a4a4aa"/>
      <stop offset=".2" stop-color="#aaaaaf"/>
      <stop offset=".3" stop-color="#a1a2a7"/>
      <stop offset=".3" stop-color="#a1a2a7"/>
      <stop offset=".3" stop-color="#acacb1"/>
      <stop offset=".4" stop-color="#a6a6ab"/>
      <stop offset=".5" stop-color="#9a9ba0"/>
      <stop offset=".5" stop-color="#a7a7ac"/>
      <stop offset=".5" stop-color="#a4a4a9"/>
      <stop offset=".6" stop-color="#a4a4a9"/>
      <stop offset=".6" stop-color="#a6a6ab"/>
      <stop offset=".7" stop-color="#a6a6ab"/>
      <stop offset=".9" stop-color="#8b8c90"/>
      <stop offset=".9" stop-color="#63646a"/>
      <stop offset=".9" stop-color="#67686d"/>
      <stop offset=".9" stop-color="#737379"/>
      <stop offset=".9" stop-color="#87888d"/>
      <stop offset="1" stop-color="#a3a3a9"/>
      <stop offset="1" stop-color="#b0b0b5"/>
      <stop offset="1" stop-color="#b7b7bc"/>
      <stop offset="1" stop-color="#cacbd0"/>
      <stop offset="1" stop-color="#cfd0d5"/>
      <stop offset="1" stop-color="#cbccd1"/>
      <stop offset="1" stop-color="#c2c2c7"/>
      <stop offset="1" stop-color="#b1b1b6"/>
      <stop offset="1" stop-color="#9a9a9f"/>
      <stop offset="1" stop-color="#95959a"/>
    </linearGradient>
    <linearGradient id="linear-gradient-3" x1="696.2" y1="43.8" x2="991.8" y2="43.8" gradientTransform="translate(0 1004) scale(1 -1)" gradientUnits="userSpaceOnUse">
      <stop offset="0" stop-color="#a2a2a8"/>
      <stop offset="0" stop-color="#a0a0a6"/>
      <stop offset="0" stop-color="#909195"/>
      <stop offset="0" stop-color="#858689"/>
      <stop offset="0" stop-color="#7f8082"/>
      <stop offset="0" stop-color="#7e7f81"/>
      <stop offset="0" stop-color="#bcbdc2"/>
      <stop offset="0" stop-color="#d0d1d6"/>
      <stop offset="0" stop-color="#cacbd0"/>
      <stop offset=".1" stop-color="#d3d4d9"/>
      <stop offset=".2" stop-color="#d2d3d8"/>
      <stop offset=".4" stop-color="#d7d8dd"/>
      <stop offset=".5" stop-color="#d3d4d9"/>
      <stop offset=".6" stop-color="#d7d8dd"/>
      <stop offset=".8" stop-color="#d1d2d7"/>
      <stop offset=".9" stop-color="#cfd0d5"/>
      <stop offset=".9" stop-color="#bcbdc1"/>
      <stop offset="1" stop-color="#a1a2a6"/>
      <stop offset="1" stop-color="#9d9ea2"/>
      <stop offset="1" stop-color="#949498"/>
      <stop offset="1" stop-color="#838487"/>
      <stop offset="1" stop-color="#6c6c6f"/>
      <stop offset="1" stop-color="#4e4e51"/>
      <stop offset="1" stop-color="#343436"/>
      <stop offset="1" stop-color="#3b3b3d"/>
      <stop offset="1" stop-color="#4e4e51"/>
      <stop offset="1" stop-color="#6f6f73"/>
      <stop offset="1" stop-color="#9c9ca0"/>
      <stop offset="1" stop-color="#a4a4a9"/>
    </linearGradient>
    <linearGradient id="linear-gradient-4" x1="844.8" y1="25.3" x2="844.8" y2="-6.9" gradientTransform="translate(0 1004) scale(1 -1)" gradientUnits="userSpaceOnUse">
      <stop offset="0" stop-color="#a4a4aa"/>
      <stop offset=".2" stop-color="#808186"/>
      <stop offset=".4" stop-color="#707075"/>
      <stop offset=".5" stop-color="#717176"/>
      <stop offset=".7" stop-color="#737377"/>
      <stop offset=".9" stop-color="#8c8d92"/>
      <stop offset="1" stop-color="#aeaeb2"/>
      <stop offset="1" stop-color="#8c8c8c"/>
    </linearGradient>
    <linearGradient id="linear-gradient-5" x1="149.7" y1="-6.9" x2="149.7" y2="-16" gradientTransform="translate(0 1004) scale(1 -1)" gradientUnits="userSpaceOnUse">
      <stop offset="0" stop-color="#a4a4a7"/>
      <stop offset=".5" stop-color="#5a5a5c"/>
      <stop offset="1" stop-color="#545454"/>
    </linearGradient>
    <linearGradient id="linear-gradient-6" x1="1544.1" y1="-6.9" x2="1544.1" y2="-16" gradientTransform="translate(0 1004) scale(1 -1)" gradientUnits="userSpaceOnUse">
      <stop offset="0" stop-color="#a4a4a7"/>
      <stop offset=".5" stop-color="#5a5a5c"/>
      <stop offset="1" stop-color="#545454"/>
    </linearGradient>
    <radialGradient id="radial-gradient" cx="844.3" cy="968" fx="844.3" fy="968" r="4.1" gradientTransform="translate(0 1004) scale(1 -1)" gradientUnits="userSpaceOnUse">
      <stop offset="0" stop-color="#252260"/>
      <stop offset="1" stop-color="#000018"/>
    </radialGradient>
  </defs>
  <!-- Generator: Adobe Illustrator 28.7.1, SVG Export Plug-In . SVG Version: 1.2.0 Build 142)  -->
  <g>
    <g id="Layer_1">
      <rect class="cls-3" x="163" y="14.6" width="1364" height="903.4"/>
      <g id="Layer_1-2" data-name="Layer_1">
        <g>
          <g>
            <path class="cls-1" d="M1503.9.4H184.8c-18.6,0-33.7,15.1-33.7,33.7v915.4h1386.6V34.1c0-18.6-15.1-33.7-33.7-33.7h0ZM172.1,40.6c0-9.6,7.8-17.4,17.4-17.4h572v20.6c0,3.7,3,6.8,6.8,6.8h151.9c3.7,0,6.8-3,6.8-6.8v-20.6h572.9c9.6,0,17.4,7.8,17.4,17.4v854.3H172.1V40.6Z"/>
            <rect class="cls-11" x="151.5" y="911.9" width="1386.1" height="37.6"/>
            <g>
              <path class="cls-2" d="M1690,949.5v29.2c0,17.8-14.4,32.2-32.2,32.2H31.8c-17.8,0-32.2-14.4-32.2-32.2v-29.2h1690.4Z"/>
              <path class="cls-7" d="M696.2,949.5h295.5v.7c0,11.4-9.3,20.7-20.7,20.7h-254.1c-11.4,0-20.7-9.3-20.7-20.7v-.7h0Z"/>
              <path class="cls-4" d="M1690,978.8c0,17.8-14.4,32.2-32.2,32.2H31.8c-17.8,0-32.2-14.4-32.2-32.2h1690.4Z"/>
            </g>
            <path class="cls-8" d="M196.5,1020h-93.5c-5,0-9.1-4.1-9.1-9.1h111.7c0,5-4.1,9.1-9.1,9.1h0Z"/>
            <path class="cls-10" d="M1590.9,1020h-93.5c-5,0-9.1-4.1-9.1-9.1h111.7c0,5-4.1,9.1-9.1,9.1h0Z"/>
          </g>
          <g>
            <path class="cls-6" d="M850.2,36c0,3.2-2.6,5.9-5.9,5.9s-5.9-2.6-5.9-5.9,2.6-5.9,5.9-5.9,5.9,2.6,5.9,5.9Z"/>
            <path class="cls-5" d="M848.4,36c0,2.3-1.8,4.1-4.1,4.1s-4.1-1.8-4.1-4.1,1.8-4.1,4.1-4.1,4.1,1.8,4.1,4.1Z"/>
            <path class="cls-9" d="M844.3,34.6c0,.6-.5,1-1,1s-1-.5-1-1,.5-1,1-1,1,.5,1,1Z"/>
          </g>
        </g>
      </g>
    </g>
  </g>
</svg>