<?xml version="1.0" encoding="UTF-8"?>
<svg xmlns="http://www.w3.org/2000/svg" version="1.1" viewBox="0 0 56 50">
  <defs>
    <style>
      .cls-1, .cls-2 {
        fill: #547256;
      }

      .cls-2 {
        opacity: .41;
      }

      .cls-3 {
        fill: #364f37;
      }
    </style>
  </defs>
  <!-- Generator: Adobe Illustrator 28.7.1, SVG Export Plug-In . SVG Version: 1.2.0 Build 142)  -->
  <g>
    <g id="Layer_1">
      <path class="cls-3" d="M46.78,32.94c4.85,3.54,7.42,8.23,7.73,14.75h-9.34c-.86-6.8-3.87-11.62-9.79-12.7-3.59-.65-7.34-.12-11.32-.12v12.79h-9.42v-31.42h9.37v15.12c4.3-.23,8.36.06,12.24-.77,5.54-1.18,9.17-7.39,8.74-13.77-.42-6.38-4.83-11.74-10.42-12.16-4.25-.32-8.53-.13-12.8-.16-2.29-.01-4.58,0-6.83,0-.56-2.96-.28-3.51,1.99-3.52,7.88-.04,15.77-.1,23.65.03,6.25.11,11.45,4.81,13.26,11.64,1.85,6.96-.23,14.4-5.25,18.75-.52.45-1.04.88-1.81,1.53Z"/>
      <path class="cls-1" d="M46.68,34.18c4.94,3.58,7.56,8.32,7.88,14.91h-9.52c-.88-6.87-3.95-11.75-9.98-12.84-3.66-.66-7.48-.12-11.54-.12v12.93h-9.6v-31.75h9.55v15.28c4.38-.23,8.52.06,12.47-.78,5.65-1.2,9.34-7.47,8.91-13.91-.43-6.44-4.92-11.86-10.62-12.29-4.33-.33-8.7-.13-13.05-.16-2.33-.01-4.67,0-6.96,0-.57-2.99-.29-3.54,2.03-3.55,8.03-.04,16.07-.1,24.1.04,6.36.11,11.67,4.86,13.52,11.76,1.89,7.03-.23,14.55-5.35,18.96-.53.45-1.06.89-1.84,1.55Z"/>
      <path class="cls-2" d="M26.89,28.42v-3.37c.74-.35,1.47-.58,2.1-1.02,1.94-1.37,3.13-3.36,2.65-6.06-.46-2.56-1.84-4.62-4.2-4.7-5.58-.19-11.16-.06-16.98-.06v35.84H.89V9.66c.81-.05,1.54-.14,2.27-.14,9.78,0,19.56-.03,29.34,0,5.25.01,8.98,3.96,8.96,9.38-.03,5.55-3.65,9.43-8.9,9.51-1.82.03-3.65,0-5.67,0Z"/>
    </g>
  </g>
</svg>